<svg width="1280" height="720" viewBox="0 0 1280 720" fill="none" xmlns="http://www.w3.org/2000/svg">
<rect width="1280" height="720" fill="#EFEFEF"/>
<path d="M1280 0H0V80H1280V0Z" fill="#0C2752"/>
<g clip-path="url(#clip0_1_2)">
<path d="M48.9698 39.9286C48.9624 43.0917 48.0726 46.1815 46.4128 48.8076C44.7531 51.4338 42.3979 53.4784 39.6448 54.6834C36.8917 55.8884 33.8642 56.1995 30.9447 55.5776C28.0252 54.9556 25.3447 53.4285 23.2418 51.189C21.1389 48.9496 19.7081 46.0983 19.1299 42.9955C18.5517 39.8926 18.8522 36.6773 19.9934 33.7557C21.1347 30.8342 23.0654 28.3375 25.5417 26.581C28.018 24.8245 30.9289 23.887 33.9065 23.887C37.9065 23.8926 41.7405 25.5858 44.5654 28.5942C47.3903 31.6025 48.9746 35.6796 48.9698 39.9286" fill="white"/>
<path d="M33.9087 22.0389C30.5754 22.0291 27.3143 23.0702 24.5383 25.0303C21.7623 26.9904 19.5962 29.7815 18.3143 33.0501C17.0323 36.3187 16.6923 39.9179 17.337 43.3919C17.9818 46.866 19.5825 50.0587 21.9364 52.5658C24.2903 55.0729 27.2916 56.7817 30.5602 57.4758C33.8289 58.17 37.2179 57.8182 40.2983 56.4651C43.3786 55.112 46.0118 52.8184 47.8643 49.8747C49.7169 46.931 50.7055 43.4696 50.7051 39.9286C50.7057 35.192 48.9377 30.6484 45.7889 27.2947C42.6401 23.941 38.3677 22.0508 33.9087 22.0389M33.9087 58.9999C31.554 58.9968 29.2229 58.5011 27.0485 57.541C24.8742 56.5809 22.8991 55.1752 21.2361 53.4043C19.5732 51.6334 18.2548 49.5318 17.3564 47.2197C16.458 44.9075 15.9971 42.43 16 39.9286C16.013 36.4971 16.9004 33.1333 18.568 30.1943C20.2356 27.2553 22.6211 24.8508 25.4714 23.2359C28.3218 21.6211 31.5305 20.8561 34.7571 21.0223C37.9837 21.1884 41.1077 22.2795 43.7977 24.1797C46.4876 26.0799 48.643 28.7183 50.0351 31.8148C51.4272 34.9114 52.0042 38.3506 51.7046 41.7674C51.4051 45.1842 50.2403 48.451 48.3338 51.2213C46.4274 53.9915 43.8504 56.1618 40.8764 57.5017C38.6728 58.4955 36.3027 59.0051 33.9087 58.9999" fill="white"/>
<path d="M56.0443 55.3559V51.2013C56.044 51.1503 56.0533 51.0998 56.0715 51.0526C56.0897 51.0054 56.1166 50.9626 56.1505 50.9265C56.1845 50.8905 56.2248 50.8619 56.2692 50.8426C56.3136 50.8232 56.3612 50.8134 56.4092 50.8137H58.5716C58.6643 50.8214 58.7509 50.8659 58.814 50.9384C58.8772 51.0109 58.9122 51.1061 58.9122 51.2048C58.9122 51.3036 58.8772 51.3987 58.814 51.4713C58.7509 51.5438 58.6643 51.5883 58.5716 51.5959H56.7785V52.8839H58.3202C58.416 52.8863 58.5073 52.928 58.5749 53.0002C58.6424 53.0725 58.6811 53.1697 58.6828 53.2715C58.6834 53.3227 58.6745 53.3735 58.6566 53.4211C58.6387 53.4686 58.6121 53.5119 58.5784 53.5486C58.5448 53.5852 58.5046 53.6145 58.4603 53.6347C58.416 53.6548 58.3684 53.6655 58.3202 53.6661H56.7785V55.3559C56.7782 55.4071 56.7684 55.4577 56.7497 55.5049C56.731 55.5521 56.7037 55.5949 56.6694 55.6309C56.6351 55.6669 56.5945 55.6953 56.5498 55.7146C56.5052 55.734 56.4574 55.7437 56.4092 55.7434C56.3612 55.7437 56.3136 55.7339 56.2692 55.7146C56.2248 55.6952 56.1845 55.6667 56.1505 55.6306C56.1166 55.5946 56.0897 55.5517 56.0715 55.5045C56.0533 55.4574 56.044 55.4068 56.0443 55.3559" fill="white"/>
<path d="M63.15 53.2077C63.1512 52.7527 62.9925 52.3137 62.705 51.9764C62.5731 51.8203 62.4119 51.6952 62.2319 51.6089C62.0519 51.5227 61.8569 51.4772 61.6594 51.4754C61.4566 51.4743 61.2557 51.5188 61.0702 51.606C60.8846 51.6931 60.7185 51.821 60.5827 51.9812C60.2924 52.3165 60.1333 52.7568 60.1378 53.2124C60.1317 53.6669 60.2911 54.1063 60.5827 54.4389C60.7177 54.5984 60.8827 54.726 61.067 54.8135C61.2513 54.901 61.4509 54.9465 61.6528 54.947C61.8507 54.9439 62.0458 54.8971 62.2258 54.8097C62.4058 54.7222 62.5667 54.5959 62.6984 54.4389C62.9872 54.1045 63.1462 53.6663 63.1433 53.2124M63.2278 51.4305C63.6577 51.9114 63.8974 52.5492 63.8974 53.2124C63.8974 53.8755 63.6577 54.5134 63.2278 54.9943C63.0275 55.2292 62.7835 55.4174 62.5113 55.5472C62.2391 55.6769 61.9445 55.7454 61.6461 55.7481C61.342 55.7468 61.0413 55.6791 60.7628 55.5495C60.4842 55.4198 60.2336 55.2309 60.0265 54.9943C59.606 54.5084 59.3726 53.8724 59.3726 53.2124C59.3726 52.5524 59.606 51.9164 60.0265 51.4305C60.2327 51.1927 60.4831 51.0029 60.7619 50.8731C61.0407 50.7434 61.3417 50.6765 61.6461 50.6766C61.9447 50.6779 62.2398 50.7456 62.5122 50.8754C62.7847 51.0053 63.0285 51.1944 63.2278 51.4305" fill="white"/>
<path d="M66.8274 52.3285C66.8283 52.2327 66.8113 52.1376 66.7773 52.0487C66.7434 51.9599 66.6932 51.8791 66.6297 51.8109C66.5662 51.7428 66.4906 51.6887 66.4073 51.6518C66.324 51.6149 66.2347 51.5959 66.1444 51.5959H65.3324V53.047H66.1444C66.3231 53.0476 66.4948 52.9737 66.6225 52.841C66.7503 52.7084 66.8239 52.5277 66.8274 52.338M67.7529 55.1739C67.7843 55.2707 67.7786 55.3769 67.737 55.4693C67.6953 55.5617 67.6211 55.633 67.5304 55.6678C67.4823 55.6804 67.433 55.6867 67.3836 55.6867V55.6867C67.2932 55.6883 67.2043 55.662 67.1277 55.6111C67.0356 55.5489 66.9592 55.4637 66.9053 55.3629C66.7997 55.0964 66.7526 54.808 66.7673 54.5193C66.7673 54.4125 66.7396 54.3079 66.6872 54.2168C66.6369 54.1331 66.5692 54.0627 66.4892 54.0112C66.3751 53.9352 66.2505 53.8786 66.1199 53.8434H65.3391V55.37C65.3379 55.4737 65.2982 55.5726 65.2286 55.6452C65.1589 55.7178 65.0651 55.7582 64.9676 55.7576C64.9197 55.7576 64.8724 55.7476 64.8283 55.7281C64.7841 55.7085 64.744 55.68 64.7103 55.6439C64.6766 55.6079 64.65 55.5652 64.6319 55.5182C64.6138 55.4712 64.6046 55.4208 64.6049 55.37V51.2013C64.604 51.1503 64.6128 51.0997 64.6307 51.0524C64.6485 51.0051 64.6752 50.9621 64.709 50.9259C64.7428 50.8898 64.7831 50.8612 64.8276 50.842C64.872 50.8227 64.9196 50.8131 64.9676 50.8137H66.1511C66.4431 50.8143 66.7279 50.9105 66.9665 51.0893C67.2051 51.2681 67.3861 51.5207 67.4846 51.8128C67.5831 52.1048 67.5945 52.422 67.5171 52.7211C67.4397 53.0202 67.2773 53.2867 67.0521 53.4842C67.1391 53.5573 67.2142 53.6452 67.2746 53.7441C67.4194 53.9681 67.4969 54.2334 67.497 54.5051C67.4905 54.6444 67.4995 54.784 67.5237 54.921C67.5753 54.9398 67.6221 54.9709 67.6607 55.0118C67.6992 55.0528 67.7285 55.1026 67.7462 55.1573" fill="white"/>
<path d="M70.1466 55.3559V51.2013C70.146 51.1502 70.1551 51.0995 70.1732 51.0522C70.1913 51.0049 70.2182 50.9619 70.2522 50.9258C70.2861 50.8897 70.3266 50.8612 70.3711 50.8419C70.4157 50.8227 70.4634 50.8131 70.5115 50.8137H72.6739C72.7704 50.8143 72.8629 50.8554 72.9312 50.9279C72.9995 51.0005 73.0381 51.0987 73.0387 51.2013C73.0376 51.3044 72.999 51.403 72.931 51.4766C72.863 51.5501 72.7709 51.5929 72.6739 51.5959H70.8808V52.8839H72.4225C72.5183 52.8863 72.6096 52.928 72.6771 53.0002C72.7447 53.0725 72.7834 53.1697 72.7851 53.2715C72.7857 53.3227 72.7768 53.3735 72.7589 53.4211C72.741 53.4686 72.7144 53.5119 72.6807 53.5486C72.6471 53.5852 72.6069 53.6145 72.5626 53.6347C72.5183 53.6548 72.4707 53.6655 72.4225 53.6661H70.8808V54.9636H72.6739C72.7712 54.9636 72.8646 55.0046 72.9334 55.0778C73.0023 55.1509 73.0409 55.2501 73.0409 55.3535C73.0409 55.4569 73.0023 55.5561 72.9334 55.6292C72.8646 55.7023 72.7712 55.7434 72.6739 55.7434H70.5315C70.5181 55.7434 70.5181 55.7434 70.5181 55.7434C70.4701 55.7437 70.4226 55.7339 70.3782 55.7146C70.3338 55.6952 70.2934 55.6667 70.2595 55.6306C70.2256 55.5946 70.1987 55.5517 70.1805 55.5045C70.1622 55.4574 70.153 55.4068 70.1533 55.3559" fill="white"/>
<path d="M75.8285 53.8079L75.2923 52.2931L74.7584 53.8079H75.8285ZM76.0999 54.5831H74.4936L74.1688 55.4976C74.1398 55.5688 74.0916 55.6293 74.0302 55.6714C73.9688 55.7134 73.8971 55.7352 73.824 55.734C73.7817 55.7342 73.7396 55.727 73.6994 55.7127C73.6072 55.6765 73.5321 55.6031 73.4904 55.5084C73.4488 55.4137 73.4439 55.3054 73.477 55.207L74.9386 51.0571C74.9677 50.984 75.0165 50.9216 75.0788 50.8777C75.1411 50.8338 75.2142 50.8104 75.289 50.8104C75.3637 50.8104 75.4368 50.8338 75.4992 50.8777C75.5615 50.9216 75.6102 50.984 75.6394 51.0571L77.101 55.207C77.134 55.3054 77.1292 55.4137 77.0875 55.5084C77.0459 55.6031 76.9708 55.6765 76.8785 55.7127C76.8378 55.7278 76.7948 55.735 76.7517 55.734C76.6797 55.7359 76.6088 55.7143 76.5487 55.672C76.4886 55.6297 76.4422 55.5689 76.4158 55.4976L76.0999 54.5831Z" fill="white"/>
<path d="M79.8173 52.3285C79.8182 52.2329 79.8013 52.138 79.7675 52.0493C79.7337 51.9606 79.6837 51.8799 79.6204 51.8118C79.5572 51.7437 79.4819 51.6896 79.3988 51.6525C79.3158 51.6155 79.2266 51.5962 79.1366 51.5959H78.3223V53.047H79.1366C79.3148 53.047 79.486 52.9728 79.6133 52.8402C79.7406 52.7076 79.8138 52.5273 79.8173 52.338M80.7428 55.1739C80.7742 55.2707 80.7685 55.3769 80.7269 55.4693C80.6853 55.5617 80.6111 55.633 80.5203 55.6678C80.473 55.6804 80.4245 55.6867 80.3757 55.6867C80.2846 55.6884 80.1951 55.6621 80.1177 55.6111C80.0286 55.5486 79.9559 55.4633 79.9063 55.3629C79.7988 55.097 79.7509 54.8082 79.7662 54.5193C79.7656 54.4129 79.7387 54.3086 79.6883 54.2168C79.6371 54.133 79.5687 54.0626 79.4881 54.0112C79.3741 53.9348 79.2495 53.8782 79.1188 53.8434H78.3379V55.37C78.3376 55.4212 78.3278 55.4719 78.3091 55.5191C78.2904 55.5663 78.2631 55.6091 78.2288 55.6451C78.1945 55.681 78.1539 55.7095 78.1093 55.7288C78.0646 55.7481 78.0168 55.7579 77.9686 55.7576C77.9206 55.7579 77.873 55.7481 77.8286 55.7287C77.7842 55.7094 77.7439 55.6808 77.71 55.6448C77.676 55.6087 77.6492 55.5659 77.6309 55.5187C77.6127 55.4715 77.6035 55.421 77.6038 55.37V51.2013C77.6029 51.1501 77.6117 51.0993 77.6297 51.0518C77.6477 51.0044 77.6746 50.9613 77.7086 50.9251C77.7427 50.8889 77.7833 50.8604 77.8279 50.8412C77.8726 50.8221 77.9205 50.8127 77.9686 50.8137H79.1521C79.4432 50.8167 79.7264 50.9147 79.9633 51.0944C80.2002 51.274 80.3793 51.5268 80.4765 51.8183C80.5736 52.1098 80.584 52.4259 80.5063 52.7239C80.4286 53.0219 80.2665 53.2873 80.042 53.4842C80.1301 53.5562 80.2054 53.6442 80.2645 53.7441C80.4103 53.9675 80.488 54.2332 80.487 54.5051C80.4805 54.6444 80.4894 54.784 80.5137 54.921C80.5654 54.9395 80.6124 54.9705 80.651 55.0115C80.6896 55.0525 80.7187 55.1024 80.7361 55.1573" fill="white"/>
<path d="M81.4836 55.3559V51.2013C81.4833 51.1503 81.4926 51.0998 81.5108 51.0526C81.529 51.0054 81.5559 50.9626 81.5898 50.9265C81.6238 50.8905 81.6641 50.8619 81.7085 50.8426C81.7529 50.8232 81.8005 50.8134 81.8485 50.8137C81.8967 50.8134 81.9445 50.8232 81.9891 50.8425C82.0337 50.8618 82.0744 50.8903 82.1087 50.9262C82.143 50.9622 82.1702 51.0051 82.189 51.0522C82.2077 51.0994 82.2175 51.1501 82.2178 51.2013V54.9636H84.0108C84.1082 54.9636 84.2016 55.0046 84.2704 55.0778C84.3393 55.1509 84.3779 55.2501 84.3779 55.3535C84.3779 55.4569 84.3393 55.5561 84.2704 55.6292C84.2016 55.7023 84.1082 55.7434 84.0108 55.7434H81.8485C81.8005 55.7437 81.7529 55.7339 81.7085 55.7146C81.6641 55.6952 81.6238 55.6667 81.5898 55.6306C81.5559 55.5946 81.529 55.5517 81.5108 55.5045C81.4926 55.4574 81.4833 55.4068 81.4836 55.3559" fill="white"/>
<path d="M87.2389 51.4754L85.8818 53.4558V55.3464C85.8827 55.3973 85.874 55.448 85.8561 55.4953C85.8382 55.5426 85.8116 55.5856 85.7777 55.6217C85.7439 55.6579 85.7036 55.6864 85.6592 55.7057C85.6148 55.725 85.5672 55.7346 85.5192 55.734C85.423 55.7327 85.3311 55.6914 85.2633 55.6189C85.1955 55.5465 85.1571 55.4486 85.1566 55.3464V53.4558L83.8218 51.4754C83.7919 51.4357 83.77 51.3899 83.7574 51.3409C83.7449 51.2918 83.742 51.2406 83.7488 51.1903C83.7557 51.14 83.7723 51.0917 83.7974 51.0485C83.8226 51.0052 83.8559 50.968 83.8952 50.939C83.9331 50.9086 83.9765 50.8867 84.0226 50.8745C84.0687 50.8623 84.1166 50.8601 84.1636 50.8681C84.2105 50.876 84.2554 50.8939 84.2957 50.9207C84.336 50.9475 84.3707 50.9826 84.3979 51.024L85.5281 52.6783L86.6582 51.024C86.7152 50.941 86.8008 50.8854 86.8964 50.8695C86.9919 50.8535 87.0895 50.8785 87.1677 50.939C87.2436 51.0001 87.2943 51.0901 87.3093 51.1901C87.3242 51.2901 87.3022 51.3923 87.2478 51.4754" fill="white"/>
<path d="M89.1299 53.2077C89.1415 52.5312 89.4025 51.8867 89.8568 51.4125C90.3111 50.9383 90.9223 50.6724 91.5592 50.6719C92.1116 50.669 92.6489 50.8629 93.0853 51.2225C93.1614 51.29 93.2105 51.3855 93.2229 51.4898C93.2353 51.5942 93.21 51.6997 93.1521 51.785C93.0905 51.8683 93.0009 51.923 92.9022 51.9376C92.8034 51.9521 92.7032 51.9254 92.6226 51.863C92.3218 51.6054 91.9455 51.4683 91.5592 51.4754C91.1175 51.4799 90.6935 51.6604 90.3712 51.9811C90.0644 52.3064 89.8909 52.7472 89.8885 53.2077C89.888 53.436 89.9304 53.6621 90.0133 53.8727C90.0962 54.0833 90.2179 54.2742 90.3712 54.4342C90.6938 54.7577 91.12 54.9393 91.5637 54.9423C91.9497 54.9483 92.3257 54.8112 92.6271 54.5547C92.7086 54.4959 92.8077 54.4711 92.9054 54.485C93.0031 54.499 93.0925 54.5507 93.1565 54.6303C93.2146 54.716 93.2399 54.8219 93.2276 54.9267C93.2152 55.0314 93.166 55.1273 93.0898 55.1951C92.6532 55.5542 92.1158 55.7472 91.5637 55.7434C90.9263 55.7447 90.314 55.4794 89.8594 55.0049C89.4047 54.5303 89.1442 53.8847 89.1343 53.2077" fill="white"/>
<path d="M94.1042 55.3558V51.2013C94.1036 51.1502 94.1127 51.0995 94.1308 51.0522C94.1489 51.0049 94.1758 50.9619 94.2098 50.9258C94.2438 50.8897 94.2842 50.8612 94.3288 50.8419C94.3733 50.8227 94.421 50.8131 94.4691 50.8137C94.5175 50.8128 94.5655 50.8221 94.6104 50.8412C94.6554 50.8603 94.6962 50.8887 94.7306 50.9248C94.765 50.9609 94.7923 51.004 94.8108 51.0515C94.8293 51.099 94.8387 51.1499 94.8384 51.2013V52.891H96.5514V51.2013C96.5508 51.1502 96.5598 51.0995 96.578 51.0522C96.5961 51.0049 96.6229 50.9619 96.6569 50.9258C96.6909 50.8897 96.7314 50.8612 96.7759 50.8419C96.8205 50.8227 96.8682 50.8131 96.9162 50.8137C96.9646 50.8128 97.0127 50.8221 97.0576 50.8412C97.1025 50.8603 97.1434 50.8887 97.1778 50.9248C97.2122 50.9609 97.2395 51.004 97.258 51.0515C97.2765 51.099 97.2859 51.1499 97.2855 51.2013V55.3558C97.2859 55.4072 97.2765 55.4582 97.258 55.5056C97.2395 55.5531 97.2122 55.5962 97.1778 55.6323C97.1434 55.6684 97.1025 55.6969 97.0576 55.7159C97.0127 55.735 96.9646 55.7444 96.9162 55.7434C96.8682 55.7441 96.8205 55.7345 96.7759 55.7152C96.7314 55.696 96.6909 55.6674 96.6569 55.6313C96.6229 55.5952 96.5961 55.5522 96.578 55.5049C96.5598 55.4576 96.5508 55.4069 96.5514 55.3558V53.6661H94.8384V55.3558C94.8387 55.4072 94.8293 55.4582 94.8108 55.5056C94.7923 55.5531 94.765 55.5962 94.7306 55.6323C94.6962 55.6684 94.6554 55.6969 94.6104 55.7159C94.5655 55.735 94.5175 55.7444 94.4691 55.7434C94.421 55.7441 94.3733 55.7345 94.3288 55.7152C94.2842 55.696 94.2438 55.6674 94.2098 55.6313C94.1758 55.5952 94.1489 55.5522 94.1308 55.5049C94.1127 55.4576 94.1036 55.4069 94.1042 55.3558" fill="white"/>
<path d="M98.1799 51.2013C98.179 51.1503 98.1877 51.0997 98.2056 51.0524C98.2235 51.0051 98.2501 50.9621 98.2839 50.9259C98.3178 50.8898 98.3581 50.8612 98.4025 50.842C98.4469 50.8227 98.4945 50.8131 98.5425 50.8137C98.6401 50.8131 98.7339 50.8535 98.8035 50.9261C98.8731 50.9987 98.9128 51.0977 98.914 51.2013V55.3559C98.9128 55.4595 98.8731 55.5584 98.8035 55.631C98.7339 55.7036 98.6401 55.7441 98.5425 55.7434C98.4945 55.7441 98.4469 55.7345 98.4025 55.7152C98.3581 55.6959 98.3178 55.6673 98.2839 55.6312C98.2501 55.595 98.2235 55.552 98.2056 55.5047C98.1877 55.4574 98.179 55.4068 98.1799 55.3559V51.2013Z" fill="white"/>
<path d="M99.8195 55.3559V51.2013C99.8192 51.1503 99.8284 51.0998 99.8466 51.0526C99.8649 51.0054 99.8917 50.9626 99.9257 50.9265C99.9596 50.8905 99.9999 50.8619 100.044 50.8426C100.089 50.8232 100.136 50.8134 100.184 50.8137C100.233 50.8134 100.28 50.8232 100.325 50.8425C100.37 50.8618 100.41 50.8903 100.445 50.9262C100.479 50.9622 100.506 51.0051 100.525 51.0522C100.544 51.0994 100.553 51.1501 100.554 51.2013V54.9636H102.347C102.444 54.9636 102.537 55.0046 102.606 55.0778C102.675 55.1509 102.714 55.2501 102.714 55.3535C102.714 55.4569 102.675 55.5561 102.606 55.6292C102.537 55.7023 102.444 55.7434 102.347 55.7434H100.184C100.136 55.7437 100.089 55.7339 100.044 55.7146C99.9999 55.6952 99.9596 55.6667 99.9257 55.6306C99.8917 55.5946 99.8649 55.5517 99.8466 55.5045C99.8284 55.4574 99.8192 55.4068 99.8195 55.3559" fill="white"/>
<path d="M103.942 54.9636H104.353C104.763 54.9472 105.152 54.7627 105.436 54.4487C105.721 54.1347 105.88 53.7157 105.88 53.2797C105.88 52.8438 105.721 52.4248 105.436 52.1108C105.152 51.7968 104.763 51.6123 104.353 51.5959H103.942V54.9636ZM103.208 55.3559V51.2013C103.207 51.1502 103.216 51.0995 103.234 51.0522C103.252 51.0049 103.279 50.9619 103.313 50.9258C103.347 50.8897 103.388 50.8612 103.432 50.8419C103.477 50.8227 103.524 50.8131 103.572 50.8137H104.353C104.969 50.8137 105.559 51.0734 105.994 51.5357C106.429 51.9979 106.674 52.6248 106.674 53.2786C106.674 53.9323 106.429 54.5592 105.994 55.0215C105.559 55.4837 104.969 55.7434 104.353 55.7434H103.572C103.524 55.7437 103.477 55.7339 103.433 55.7146C103.388 55.6952 103.348 55.6667 103.314 55.6306C103.28 55.5946 103.253 55.5517 103.235 55.5045C103.217 55.4574 103.207 55.4068 103.208 55.3559" fill="white"/>
<path d="M107.308 55.3558V51.2013C107.307 51.1503 107.316 51.0997 107.333 51.0524C107.351 51.0051 107.378 50.9621 107.412 50.9259C107.446 50.8898 107.486 50.8612 107.53 50.842C107.575 50.8227 107.622 50.8131 107.67 50.8137C107.719 50.8128 107.767 50.8221 107.812 50.8412C107.857 50.8602 107.898 50.8886 107.933 50.9247C107.967 50.9608 107.995 51.0038 108.013 51.0513C108.032 51.0988 108.042 51.1498 108.042 51.2013V52.891H109.755V51.2013C109.754 51.1503 109.763 51.0997 109.781 51.0524C109.798 51.0051 109.825 50.9621 109.859 50.9259C109.893 50.8898 109.933 50.8612 109.978 50.842C110.022 50.8227 110.07 50.8131 110.118 50.8137C110.166 50.8128 110.214 50.8221 110.259 50.8412C110.304 50.8602 110.345 50.8886 110.38 50.9247C110.414 50.9608 110.442 51.0038 110.461 51.0513C110.479 51.0988 110.489 51.1498 110.489 51.2013V55.3558C110.489 55.4073 110.479 55.4583 110.461 55.5058C110.442 55.5533 110.414 55.5964 110.38 55.6324C110.345 55.6685 110.304 55.6969 110.259 55.716C110.214 55.735 110.166 55.7444 110.118 55.7434C110.07 55.7441 110.022 55.7345 109.978 55.7152C109.933 55.6959 109.893 55.6673 109.859 55.6312C109.825 55.595 109.798 55.552 109.781 55.5047C109.763 55.4574 109.754 55.4068 109.755 55.3558V53.6661H108.042V55.3558C108.042 55.4073 108.032 55.4583 108.013 55.5058C107.995 55.5533 107.967 55.5964 107.933 55.6324C107.898 55.6685 107.857 55.6969 107.812 55.716C107.767 55.735 107.719 55.7444 107.67 55.7434C107.622 55.7441 107.575 55.7345 107.53 55.7152C107.486 55.6959 107.446 55.6673 107.412 55.6312C107.378 55.595 107.351 55.552 107.333 55.5047C107.316 55.4574 107.307 55.4068 107.308 55.3558Z" fill="white"/>
<path d="M115.032 53.2077C115.033 52.7527 114.875 52.3135 114.587 51.9764C114.455 51.8207 114.294 51.6958 114.115 51.6096C113.935 51.5234 113.741 51.4777 113.544 51.4754C113.342 51.4744 113.142 51.5185 112.957 51.6048C112.772 51.6911 112.607 51.8177 112.471 51.9764C112.181 52.3118 112.022 52.7521 112.026 53.2077C112.02 53.6622 112.18 54.1016 112.471 54.4342C112.607 54.5938 112.772 54.7215 112.957 54.8091C113.141 54.8966 113.341 54.942 113.544 54.9423C113.741 54.9386 113.936 54.8915 114.115 54.8041C114.295 54.7166 114.455 54.5907 114.587 54.4342C114.876 54.0999 115.035 53.6616 115.032 53.2077M115.119 51.4258C115.546 51.908 115.784 52.5454 115.784 53.2077C115.784 53.87 115.546 54.5073 115.119 54.9896C114.919 55.2242 114.675 55.4122 114.403 55.542C114.131 55.6717 113.837 55.7403 113.539 55.7434C113.235 55.7424 112.934 55.6749 112.655 55.5452C112.376 55.4156 112.125 55.2264 111.917 54.9896C111.497 54.5037 111.263 53.8677 111.263 53.2077C111.263 52.5476 111.497 51.9117 111.917 51.4258C112.124 51.1879 112.375 50.9981 112.654 50.8683C112.933 50.7386 113.234 50.6717 113.539 50.6719C113.837 50.6735 114.132 50.7413 114.404 50.8712C114.676 51.001 114.919 51.1899 115.119 51.4258" fill="white"/>
<path d="M120.258 53.2077C120.259 52.7527 120.1 52.3135 119.813 51.9764C119.679 51.8187 119.516 51.6925 119.334 51.6061C119.152 51.5198 118.954 51.4751 118.755 51.4751C118.555 51.4751 118.358 51.5198 118.176 51.6061C117.993 51.6925 117.83 51.8187 117.697 51.9764C117.407 52.3118 117.248 52.7521 117.252 53.2077C117.246 53.6622 117.405 54.1016 117.697 54.4342C117.829 54.594 117.992 54.722 118.174 54.8096C118.357 54.8973 118.555 54.9427 118.755 54.9427C118.955 54.9427 119.153 54.8973 119.335 54.8096C119.518 54.722 119.681 54.594 119.813 54.4342C120.102 54.0999 120.261 53.6616 120.258 53.2077M120.344 51.4258C120.772 51.908 121.01 52.5454 121.01 53.2077C121.01 53.87 120.772 54.5073 120.344 54.9896C120.144 55.2244 119.9 55.4127 119.628 55.5424C119.356 55.6722 119.061 55.7406 118.763 55.7434C118.459 55.742 118.158 55.6744 117.879 55.5448C117.601 55.4151 117.35 55.2261 117.143 54.9896C116.723 54.5037 116.489 53.8677 116.489 53.2077C116.489 52.5476 116.723 51.9117 117.143 51.4258C117.349 51.188 117.6 50.9982 117.878 50.8684C118.157 50.7387 118.458 50.6717 118.763 50.6719C119.061 50.6731 119.356 50.7408 119.629 50.8707C119.901 51.0005 120.145 51.1896 120.344 51.4258" fill="white"/>
<path d="M122.52 54.9636H122.932C123.342 54.9472 123.73 54.7627 124.015 54.4487C124.299 54.1347 124.459 53.7157 124.459 53.2797C124.459 52.8438 124.299 52.4248 124.015 52.1108C123.73 51.7968 123.342 51.6123 122.932 51.5959H122.52V54.9636ZM121.786 55.3559V51.2013C121.785 51.1502 121.794 51.0995 121.813 51.0522C121.831 51.0049 121.858 50.9619 121.892 50.9258C121.926 50.8897 121.966 50.8612 122.011 50.8419C122.055 50.8227 122.103 50.8131 122.151 50.8137H122.932C123.547 50.8137 124.137 51.0734 124.572 51.5357C125.008 51.9979 125.252 52.6248 125.252 53.2786C125.252 53.9323 125.008 54.5592 124.572 55.0215C124.137 55.4837 123.547 55.7434 122.932 55.7434H122.151C122.103 55.7437 122.055 55.7339 122.011 55.7146C121.966 55.6952 121.926 55.6667 121.892 55.6306C121.858 55.5946 121.831 55.5517 121.813 55.5045C121.795 55.4574 121.786 55.4068 121.786 55.3559" fill="white"/>
<path d="M128.598 54.9636H129.01C129.42 54.9472 129.808 54.7627 130.093 54.4487C130.377 54.1347 130.536 53.7157 130.536 53.2797C130.536 52.8438 130.377 52.4248 130.093 52.1108C129.808 51.7968 129.42 51.6123 129.01 51.5959H128.598V54.9636ZM127.866 55.3559V51.2013C127.865 51.1503 127.874 51.0997 127.892 51.0524C127.91 51.0051 127.936 50.9621 127.97 50.9259C128.004 50.8898 128.044 50.8612 128.089 50.842C128.133 50.8227 128.181 50.8131 128.229 50.8137H129.01C129.625 50.8137 130.215 51.0734 130.65 51.5357C131.085 51.9979 131.33 52.6248 131.33 53.2786C131.33 53.9323 131.085 54.5592 130.65 55.0215C130.215 55.4837 129.625 55.7434 129.01 55.7434H128.229C128.181 55.7434 128.134 55.7334 128.089 55.7139C128.045 55.6944 128.005 55.6658 127.971 55.6298C127.938 55.5937 127.911 55.551 127.893 55.504C127.875 55.457 127.866 55.4066 127.866 55.3559" fill="white"/>
<path d="M131.959 55.3559V51.2013C131.959 51.1502 131.968 51.0995 131.986 51.0522C132.004 51.0049 132.031 50.9619 132.065 50.9258C132.099 50.8897 132.139 50.8612 132.184 50.8419C132.229 50.8227 132.276 50.8131 132.324 50.8137H134.487C134.583 50.8149 134.675 50.8563 134.743 50.9287C134.81 51.0012 134.849 51.0991 134.849 51.2013C134.849 51.3042 134.811 51.4028 134.743 51.4764C134.675 51.55 134.584 51.5929 134.487 51.5959H132.694V52.8839H134.235C134.331 52.8863 134.422 52.928 134.49 53.0002C134.558 53.0725 134.596 53.1697 134.598 53.2715C134.599 53.3227 134.59 53.3735 134.572 53.4211C134.554 53.4686 134.527 53.5119 134.494 53.5486C134.46 53.5852 134.42 53.6145 134.375 53.6347C134.331 53.6548 134.284 53.6655 134.235 53.6661H132.694V54.9636H134.487C134.584 54.9636 134.677 55.0046 134.746 55.0778C134.815 55.1509 134.854 55.2501 134.854 55.3535C134.854 55.4569 134.815 55.5561 134.746 55.6292C134.677 55.7023 134.584 55.7434 134.487 55.7434H132.344C132.331 55.7434 132.331 55.7434 132.331 55.7434C132.283 55.7437 132.235 55.7339 132.191 55.7146C132.147 55.6952 132.106 55.6667 132.072 55.6306C132.038 55.5946 132.012 55.5517 131.993 55.5045C131.975 55.4574 131.966 55.4068 131.966 55.3559" fill="white"/>
<path d="M137.058 55.6725L137.014 55.6394C137.014 55.6394 137.014 55.6394 137.014 55.6182C137.001 55.6058 136.99 55.5915 136.981 55.5756C136.972 55.5552 136.961 55.5361 136.947 55.5189L135.31 51.3974C135.291 51.3509 135.281 51.3007 135.281 51.25C135.281 51.1993 135.29 51.149 135.309 51.1024C135.328 51.0557 135.355 51.0136 135.39 50.9786C135.424 50.9436 135.465 50.9164 135.51 50.8988C135.553 50.879 135.6 50.8686 135.647 50.8682C135.694 50.8677 135.741 50.8772 135.785 50.8961C135.828 50.915 135.868 50.943 135.902 50.9783C135.935 51.0137 135.961 51.0557 135.979 51.102L137.27 54.3633L138.558 51.102C138.596 51.0084 138.667 50.9345 138.757 50.8965C138.846 50.8584 138.945 50.8593 139.034 50.8988C139.122 50.9371 139.193 51.0111 139.23 51.1046C139.267 51.1981 139.268 51.3034 139.232 51.3974L137.599 55.5118C137.593 55.532 137.584 55.5512 137.572 55.5685C137.572 55.5685 137.572 55.5685 137.572 55.5685C137.572 55.5685 137.546 55.5969 137.539 55.6111V55.6323C137.526 55.6441 137.513 55.6551 137.499 55.6654H137.486C137.469 55.678 137.451 55.6891 137.432 55.6985C137.432 55.6985 137.432 55.6985 137.419 55.6985C137.4 55.6999 137.382 55.7047 137.365 55.7127H137.352C137.331 55.7158 137.309 55.7158 137.288 55.7127C137.265 55.7163 137.243 55.7163 137.221 55.7127H137.208C137.191 55.7047 137.173 55.6999 137.154 55.6985L137.094 55.656L137.058 55.6725Z" fill="white"/>
<path d="M139.982 55.3559V51.2013C139.981 51.1502 139.99 51.0995 140.008 51.0522C140.026 51.0049 140.053 50.9619 140.087 50.9258C140.121 50.8897 140.162 50.8612 140.206 50.8419C140.251 50.8227 140.298 50.8131 140.347 50.8137H142.509C142.606 50.8143 142.698 50.8554 142.766 50.9279C142.835 51.0005 142.873 51.0987 142.874 51.2013C142.873 51.3044 142.834 51.403 142.766 51.4766C142.698 51.5501 142.606 51.5929 142.509 51.5959H140.716V52.8839H142.258C142.354 52.8863 142.445 52.9279 142.513 53.0001C142.581 53.0722 142.62 53.1694 142.622 53.2715C142.623 53.3751 142.585 53.4748 142.517 53.5487C142.448 53.6227 142.355 53.6649 142.258 53.6661H140.716V54.9636H142.509C142.606 54.9636 142.7 55.0046 142.768 55.0778C142.837 55.1509 142.876 55.2501 142.876 55.3535C142.876 55.4569 142.837 55.5561 142.768 55.6292C142.7 55.7023 142.606 55.7434 142.509 55.7434H140.367C140.353 55.7434 140.353 55.7434 140.353 55.7434C140.305 55.7437 140.258 55.7339 140.213 55.7146C140.169 55.6952 140.129 55.6667 140.095 55.6306C140.061 55.5946 140.034 55.5517 140.016 55.5045C139.997 55.4574 139.988 55.4068 139.988 55.3559" fill="white"/>
<path d="M143.575 55.3559V51.2013C143.574 51.1505 143.583 51.1002 143.601 51.0531C143.62 51.0061 143.646 50.9634 143.68 50.9274C143.714 50.8913 143.754 50.8628 143.798 50.8433C143.842 50.8238 143.889 50.8137 143.937 50.8137C143.986 50.8131 144.034 50.8226 144.078 50.8418C144.123 50.861 144.164 50.8894 144.199 50.9254C144.233 50.9614 144.261 51.0043 144.28 51.0517C144.299 51.099 144.308 51.1499 144.309 51.2013V54.9636H146.102C146.199 54.9636 146.292 55.0046 146.361 55.0778C146.43 55.1509 146.469 55.2501 146.469 55.3535C146.469 55.4569 146.43 55.5561 146.361 55.6292C146.292 55.7023 146.199 55.7434 146.102 55.7434H143.937C143.889 55.7434 143.842 55.7334 143.798 55.7139C143.754 55.6944 143.714 55.6658 143.68 55.6298C143.646 55.5937 143.62 55.551 143.601 55.504C143.583 55.457 143.574 55.4066 143.575 55.3559" fill="white"/>
<path d="M150.269 53.2077C150.269 52.7529 150.11 52.3141 149.824 51.9764C149.69 51.8186 149.527 51.6924 149.344 51.606C149.162 51.5196 148.965 51.475 148.765 51.475C148.565 51.475 148.368 51.5196 148.185 51.606C148.003 51.6924 147.839 51.8186 147.706 51.9764C147.415 52.3118 147.256 52.7521 147.261 53.2077C147.255 53.6622 147.414 54.1016 147.706 54.4342C147.838 54.594 148.001 54.722 148.184 54.8097C148.366 54.8974 148.564 54.9428 148.765 54.9428C148.965 54.9428 149.163 54.8974 149.346 54.8097C149.528 54.722 149.691 54.594 149.824 54.4342C150.112 54.0993 150.271 53.6614 150.269 53.2077M150.353 51.4258C150.783 51.9067 151.023 52.5445 151.023 53.2077C151.023 53.8708 150.783 54.5087 150.353 54.9896C150.153 55.2242 149.909 55.4122 149.638 55.542C149.366 55.6717 149.072 55.7403 148.774 55.7434C148.47 55.742 148.169 55.6744 147.89 55.5448C147.612 55.4151 147.361 55.2261 147.154 54.9896C146.732 54.5044 146.498 53.8682 146.498 53.2077C146.498 52.5472 146.732 51.9109 147.154 51.4258C147.36 51.188 147.611 50.9982 147.889 50.8684C148.168 50.7387 148.469 50.6717 148.774 50.6719C149.072 50.6735 149.367 50.7413 149.639 50.8712C149.911 51.001 150.154 51.1899 150.353 51.4258" fill="white"/>
<path d="M152.44 53.047H153.254C153.435 53.047 153.609 52.9705 153.737 52.8345C153.865 52.6984 153.937 52.5139 153.937 52.3215C153.937 52.129 153.865 51.9445 153.737 51.8084C153.609 51.6724 153.435 51.5959 153.254 51.5959H152.44V53.047ZM153.254 53.8292H152.44V55.3559C152.44 55.4593 152.401 55.5584 152.332 55.6316C152.264 55.7047 152.17 55.7458 152.073 55.7458C151.975 55.7458 151.882 55.7047 151.813 55.6316C151.744 55.5584 151.706 55.4593 151.706 55.3559V51.2013C151.705 51.1503 151.715 51.0998 151.733 51.0526C151.751 51.0054 151.778 50.9626 151.812 50.9265C151.846 50.8905 151.886 50.8619 151.931 50.8426C151.975 50.8232 152.023 50.8134 152.071 50.8137H153.254C153.631 50.8137 153.992 50.9726 154.258 51.2553C154.524 51.5381 154.674 51.9216 154.674 52.3215C154.674 52.7213 154.524 53.1048 154.258 53.3876C153.992 53.6704 153.631 53.8292 153.254 53.8292" fill="white"/>
<path d="M159.212 51.2013V55.3558C159.21 55.4591 159.169 55.5573 159.1 55.6297C159.031 55.702 158.938 55.7428 158.84 55.7434C158.792 55.7437 158.745 55.7339 158.7 55.7146C158.656 55.6952 158.616 55.6667 158.582 55.6306C158.548 55.5945 158.521 55.5517 158.503 55.5045C158.484 55.4574 158.475 55.4068 158.475 55.3558V52.3923L157.523 53.8103C157.49 53.8603 157.445 53.9011 157.394 53.929C157.342 53.957 157.285 53.9714 157.227 53.971H157.214C157.155 53.9715 157.097 53.9573 157.044 53.9294C156.991 53.9014 156.945 53.8606 156.909 53.8103L155.964 52.3923V55.3558C155.964 55.4593 155.925 55.5584 155.856 55.6316C155.787 55.7047 155.694 55.7458 155.597 55.7458C155.499 55.7458 155.406 55.7047 155.337 55.6316C155.268 55.5584 155.23 55.4593 155.23 55.3558V51.2013C155.23 51.0991 155.269 51.0012 155.336 50.9287C155.404 50.8562 155.496 50.8149 155.592 50.8137H155.612C155.669 50.8141 155.726 50.8288 155.776 50.8568C155.827 50.8847 155.871 50.925 155.904 50.9744L157.221 52.9194L158.536 50.9744C158.57 50.9245 158.615 50.8839 158.666 50.8559C158.718 50.828 158.776 50.8135 158.834 50.8137V50.8137C158.931 50.8155 159.023 50.8566 159.092 50.9288C159.161 51.0009 159.202 51.0984 159.205 51.2013" fill="white"/>
<path d="M160.151 55.3559V51.2013C160.15 51.1503 160.159 51.0997 160.176 51.0524C160.194 51.0051 160.221 50.9621 160.255 50.9259C160.289 50.8898 160.329 50.8612 160.373 50.842C160.418 50.8227 160.465 50.8131 160.513 50.8137H162.673C162.77 50.8149 162.862 50.8563 162.929 50.9287C162.997 51.0012 163.036 51.0991 163.036 51.2013C163.036 51.3042 162.997 51.4028 162.93 51.4764C162.862 51.55 162.77 51.5929 162.673 51.5959H160.894V52.8839H162.435C162.531 52.8863 162.623 52.928 162.69 53.0002C162.758 53.0725 162.796 53.1697 162.798 53.2715C162.799 53.3227 162.79 53.3735 162.772 53.4211C162.754 53.4686 162.727 53.5119 162.694 53.5486C162.66 53.5852 162.62 53.6145 162.576 53.6347C162.531 53.6548 162.484 53.6655 162.435 53.6661H160.894V54.9636H162.673C162.771 54.9636 162.864 55.0046 162.933 55.0778C163.002 55.1509 163.041 55.2501 163.041 55.3535C163.041 55.4569 163.002 55.5561 162.933 55.6292C162.864 55.7023 162.771 55.7434 162.673 55.7434H160.529C160.516 55.7434 160.516 55.7434 160.516 55.7434C160.468 55.7434 160.42 55.7334 160.376 55.7139C160.332 55.6944 160.292 55.6658 160.258 55.6298C160.225 55.5937 160.198 55.551 160.18 55.504C160.162 55.457 160.153 55.4066 160.153 55.3559" fill="white"/>
<path d="M164.469 55.3558C164.469 55.4574 164.431 55.5548 164.363 55.6266C164.296 55.6984 164.204 55.7387 164.108 55.7387C164.013 55.7387 163.921 55.6984 163.854 55.6266C163.786 55.5548 163.748 55.4574 163.748 55.3558V51.258C163.745 51.1953 163.757 51.1328 163.783 51.0763C163.808 51.0197 163.847 50.9709 163.895 50.9342C163.972 50.8758 164.068 50.8517 164.162 50.8671C164.256 50.8826 164.34 50.9363 164.398 51.0169L166.533 54.1671V51.2722C166.534 51.1715 166.572 51.075 166.639 51.0038C166.706 50.9326 166.797 50.8923 166.891 50.8917C166.987 50.8923 167.078 50.9324 167.146 51.0035C167.213 51.0746 167.252 51.171 167.254 51.2722V55.3629C167.254 55.4651 167.215 55.563 167.147 55.6355C167.08 55.708 166.988 55.7493 166.891 55.7505C166.839 55.7498 166.788 55.7369 166.741 55.7128C166.694 55.6887 166.653 55.654 166.62 55.6111C166.607 55.5987 166.596 55.5844 166.587 55.5685L164.469 52.4396V55.3558Z" fill="white"/>
<path d="M171.276 51.5959H170.224V55.3582C170.225 55.409 170.216 55.4594 170.198 55.5064C170.18 55.5534 170.153 55.5961 170.119 55.632C170.085 55.6679 170.045 55.6963 170.001 55.7154C169.957 55.7345 169.909 55.7441 169.861 55.7434C169.814 55.7437 169.766 55.734 169.722 55.7148C169.678 55.6956 169.637 55.6672 169.604 55.6314C169.57 55.5956 169.543 55.5531 169.524 55.5062C169.506 55.4593 169.497 55.409 169.497 55.3582V51.5959H168.458C168.36 51.5941 168.268 51.5516 168.2 51.4777C168.132 51.4038 168.094 51.3045 168.095 51.2013C168.094 51.1503 168.103 51.0997 168.121 51.0524C168.139 51.0051 168.165 50.9621 168.199 50.9259C168.233 50.8898 168.273 50.8612 168.318 50.842C168.362 50.8227 168.41 50.8131 168.458 50.8137H171.283C171.331 50.8137 171.378 50.8238 171.422 50.8433C171.466 50.8628 171.506 50.8914 171.54 50.9274C171.574 50.9634 171.601 51.0061 171.619 51.0531C171.637 51.1002 171.646 51.1505 171.646 51.2013C171.645 51.3042 171.607 51.4028 171.539 51.4764C171.472 51.55 171.38 51.5929 171.283 51.5959" fill="white"/>
<path d="M58.8764 24.8961H57.8241V28.656C57.8265 28.7081 57.8189 28.7601 57.8017 28.8089C57.7846 28.8577 57.7582 28.9023 57.7243 28.9399C57.6903 28.9775 57.6495 29.0074 57.6043 29.0276C57.5591 29.0479 57.5105 29.0581 57.4615 29.0578C57.4134 29.0578 57.3657 29.0477 57.3213 29.028C57.2769 29.0084 57.2366 28.9797 57.2027 28.9434C57.1688 28.9072 57.1419 28.8642 57.1237 28.8169C57.1055 28.7696 57.0963 28.7189 57.0966 28.6678V24.8961H56.051C55.9538 24.8942 55.8613 24.8518 55.7934 24.7779C55.7255 24.704 55.6878 24.6047 55.6884 24.5014C55.6875 24.4505 55.6962 24.3999 55.7141 24.3526C55.732 24.3053 55.7586 24.2623 55.7925 24.2261C55.8263 24.19 55.8666 24.1614 55.911 24.1421C55.9554 24.1228 56.003 24.1132 56.051 24.1139H58.8764C58.9242 24.1139 58.9715 24.1239 59.0156 24.1434C59.0598 24.1629 59.0999 24.1915 59.1336 24.2275C59.1673 24.2636 59.1939 24.3063 59.212 24.3533C59.2301 24.4003 59.2393 24.4507 59.239 24.5014C59.2385 24.6043 59.2003 24.703 59.1327 24.7766C59.0651 24.8502 58.9732 24.893 58.8764 24.8961" fill="white"/>
<path d="M59.9998 28.656V24.5014C59.9992 24.4504 60.0083 24.3997 60.0264 24.3524C60.0445 24.3051 60.0714 24.2621 60.1054 24.226C60.1394 24.1899 60.1798 24.1613 60.2243 24.1421C60.2689 24.1228 60.3166 24.1132 60.3647 24.1139C60.413 24.1129 60.4611 24.1223 60.506 24.1414C60.5509 24.1604 60.5918 24.1889 60.6262 24.225C60.6606 24.2611 60.6879 24.3042 60.7064 24.3516C60.7249 24.3991 60.7343 24.4501 60.734 24.5014V26.1912H62.447V24.5014C62.4464 24.4504 62.4554 24.3997 62.4735 24.3524C62.4917 24.3051 62.5185 24.2621 62.5525 24.226C62.5865 24.1899 62.627 24.1613 62.6715 24.1421C62.716 24.1228 62.7637 24.1132 62.8118 24.1139C62.8602 24.1129 62.9083 24.1223 62.9532 24.1414C62.9981 24.1604 63.039 24.1889 63.0734 24.225C63.1078 24.2611 63.135 24.3042 63.1535 24.3516C63.1721 24.3991 63.1814 24.4501 63.1811 24.5014V28.656C63.1829 28.7085 63.1747 28.7608 63.1569 28.8098C63.1391 28.8588 63.1121 28.9034 63.0776 28.941C63.043 28.9786 63.0017 29.0083 62.956 29.0284C62.9103 29.0484 62.8613 29.0584 62.8118 29.0578C62.7636 29.0584 62.7157 29.0487 62.671 29.0293C62.6263 29.0099 62.5857 28.9812 62.5517 28.9448C62.5177 28.9085 62.4909 28.8652 62.4729 28.8176C62.4549 28.77 62.4461 28.7191 62.447 28.6678V26.9663H60.734V28.656C60.7358 28.7085 60.7275 28.7608 60.7097 28.8098C60.6919 28.8588 60.6649 28.9034 60.6304 28.941C60.5959 28.9786 60.5545 29.0083 60.5088 29.0284C60.4631 29.0484 60.4141 29.0584 60.3647 29.0578C60.3164 29.0584 60.2685 29.0487 60.2238 29.0293C60.1791 29.0099 60.1386 28.9812 60.1045 28.9448C60.0705 28.9085 60.0437 28.8652 60.0257 28.8176C60.0077 28.77 59.9989 28.7191 59.9998 28.6678" fill="white"/>
<path d="M64.358 28.656V24.5014C64.3574 24.4504 64.3664 24.3997 64.3845 24.3524C64.4027 24.3051 64.4295 24.2621 64.4635 24.226C64.4975 24.1899 64.538 24.1613 64.5825 24.1421C64.627 24.1228 64.6748 24.1132 64.7228 24.1139H66.8852C66.9818 24.1145 67.0743 24.1555 67.1426 24.2281C67.2109 24.3006 67.2495 24.3988 67.2501 24.5014C67.249 24.6045 67.2104 24.7032 67.1424 24.7767C67.0744 24.8503 66.9822 24.8931 66.8852 24.8961H65.0944V26.1841H66.6338C66.7265 26.1917 66.8131 26.2363 66.8763 26.3088C66.9394 26.3813 66.9745 26.4764 66.9745 26.5752C66.9745 26.674 66.9394 26.7691 66.8763 26.8416C66.8131 26.9141 66.7265 26.9586 66.6338 26.9663H65.0944V28.2637H66.8852C66.9779 28.2714 67.0645 28.3159 67.1277 28.3884C67.1908 28.4609 67.2259 28.5561 67.2259 28.6548C67.2259 28.7536 67.1908 28.8487 67.1277 28.9213C67.0645 28.9938 66.9779 29.0383 66.8852 29.0459H64.7429C64.7295 29.0459 64.7295 29.0459 64.7295 29.0459C64.6814 29.0459 64.6338 29.0358 64.5894 29.0162C64.545 28.9966 64.5046 28.9678 64.4707 28.9316C64.4368 28.8954 64.41 28.8524 64.3918 28.8051C64.3736 28.7578 64.3644 28.7071 64.3647 28.656" fill="white"/>
<path d="M56.2468 39.9428C56.252 39.2793 56.3804 38.6235 56.6247 38.0128C56.869 37.4021 57.2243 36.8487 57.6703 36.3841C58.1163 35.9196 58.6441 35.5531 59.2237 35.3057C59.8033 35.0582 60.4231 34.9347 61.0477 34.9422C62.122 34.9399 63.1661 35.3202 64.0132 36.0222C64.0903 36.0858 64.1549 36.165 64.2032 36.2551C64.2515 36.3452 64.2827 36.4446 64.2949 36.5475C64.3071 36.6504 64.3001 36.7549 64.2742 36.8549C64.2484 36.955 64.2043 37.0486 64.1444 37.1306C64.0845 37.2125 64.01 37.2811 63.9252 37.3325C63.8403 37.3838 63.7468 37.4169 63.6499 37.4298C63.553 37.4428 63.4547 37.4353 63.3605 37.4079C63.2663 37.3805 63.1782 37.3336 63.101 37.27C62.5135 36.7857 61.7913 36.5223 61.0477 36.5209C60.6132 36.5132 60.1817 36.5988 59.7792 36.7726C59.3766 36.9464 59.0113 37.2048 58.7051 37.5323C58.3975 37.8401 58.1524 38.2114 57.9849 38.6235C57.8173 39.0356 57.7309 39.4798 57.7309 39.9286C57.7309 40.3775 57.8173 40.8217 57.9849 41.2338C58.1524 41.6458 58.3975 42.0172 58.7051 42.325C59.0113 42.6525 59.3766 42.9109 59.7792 43.0847C60.1817 43.2585 60.6132 43.3441 61.0477 43.3364C61.6741 43.3292 62.2878 43.1475 62.8274 42.8094V40.9188H60.9676C60.7712 40.917 60.5835 40.8332 60.4449 40.6855C60.3063 40.5378 60.2279 40.3381 60.2267 40.1295C60.2267 40.0267 60.246 39.925 60.2833 39.8301C60.3207 39.7353 60.3754 39.6493 60.4444 39.5772C60.5133 39.5051 60.5951 39.4482 60.6849 39.41C60.7747 39.3717 60.8708 39.3528 60.9676 39.3544H63.5549C63.6526 39.3515 63.7498 39.3695 63.8409 39.4071C63.932 39.4447 64.0152 39.5013 64.0854 39.5735C64.1556 39.6457 64.2116 39.7321 64.25 39.8275C64.2884 39.923 64.3085 40.0257 64.309 40.1295V43.2017C64.3031 43.2815 64.2905 43.3606 64.2712 43.4381C64.2579 43.4664 64.2579 43.4806 64.2445 43.5066V43.5208C64.1986 43.6574 64.1119 43.7744 63.9976 43.854C63.1546 44.554 62.1154 44.9342 61.0454 44.934C58.4047 44.934 56.2446 42.7314 56.2446 39.9712" fill="white"/>
<path d="M73.0787 39.9286C73.0778 39.0307 72.7604 38.1656 72.1889 37.504C71.9292 37.1975 71.6124 36.9519 71.2585 36.7826C70.9046 36.6134 70.5214 36.5242 70.1333 36.5209C69.7368 36.5187 69.3444 36.6051 68.9815 36.7745C68.6185 36.9438 68.2932 37.1924 68.0265 37.504C67.4512 38.1631 67.1331 39.0298 67.1366 39.9286C67.1295 40.824 67.4483 41.6876 68.0265 42.3391C68.2925 42.6526 68.6174 42.9033 68.9803 43.0751C69.3432 43.2469 69.736 43.3359 70.1333 43.3364C70.5222 43.3303 70.9057 43.2385 71.2595 43.0668C71.6134 42.8951 71.9298 42.6474 72.1889 42.3391C72.7623 41.6845 73.0804 40.8229 73.0787 39.9286M73.2411 36.424C74.084 37.3712 74.5535 38.6252 74.5535 39.9286C74.5535 41.2321 74.084 42.4861 73.2411 43.4333C72.8463 43.8951 72.3657 44.2652 71.8297 44.5202C71.2937 44.7752 70.7139 44.9096 70.1266 44.9151C69.5285 44.9119 68.9374 44.7789 68.3895 44.524C67.8417 44.2692 67.3487 43.898 66.9408 43.4333C66.1127 42.4782 65.653 41.2272 65.653 39.9286C65.653 38.6301 66.1127 37.3791 66.9408 36.424C67.3467 35.9567 67.8394 35.5838 68.3877 35.3287C68.936 35.0737 69.528 34.9421 70.1266 34.9422C70.7144 34.9445 71.2951 35.0775 71.8316 35.3327C72.368 35.5879 72.8482 35.9597 73.2411 36.424Z" fill="white"/>
<path d="M77.5259 43.379H78.3335C79.1595 43.379 79.9517 43.0304 80.5358 42.4099C81.1199 41.7895 81.448 40.9479 81.448 40.0704C81.448 39.193 81.1199 38.3514 80.5358 37.731C79.9517 37.1105 79.1595 36.7619 78.3335 36.7619H77.5259V43.379ZM76.0821 44.1541V35.9797C76.0809 35.8792 76.0986 35.7795 76.1344 35.6864C76.1701 35.5934 76.223 35.5089 76.29 35.4379C76.357 35.367 76.4367 35.311 76.5244 35.2734C76.6121 35.2357 76.7061 35.2171 76.8006 35.2187H78.3357C79.5104 35.2739 80.6197 35.8084 81.4326 36.7109C82.2455 37.6134 82.6992 38.8143 82.6992 40.0634C82.6992 41.3124 82.2455 42.5133 81.4326 43.4158C80.6197 44.3183 79.5104 44.8529 78.3357 44.908H76.8006C76.7065 44.9083 76.6132 44.8888 76.5262 44.8507C76.4391 44.8126 76.36 44.7565 76.2935 44.6858C76.2269 44.6151 76.1741 44.5311 76.1382 44.4386C76.1023 44.3461 76.084 44.247 76.0843 44.147" fill="white"/>
<path d="M85.8373 43.379H86.6449C87.4709 43.379 88.2631 43.0304 88.8472 42.4099C89.4313 41.7895 89.7594 40.9479 89.7594 40.0704C89.7594 39.193 89.4313 38.3514 88.8472 37.731C88.2631 37.1105 87.4709 36.7619 86.6449 36.7619H85.8373V43.379ZM84.3935 44.1541V35.9797C84.3923 35.8794 84.41 35.7799 84.4456 35.687C84.4812 35.5941 84.5339 35.5097 84.6006 35.4388C84.6674 35.3679 84.7469 35.3118 84.8343 35.2741C84.9218 35.2363 85.0154 35.2174 85.1098 35.2187H86.6449C87.8196 35.2739 88.9289 35.8084 89.7418 36.7109C90.5547 37.6134 91.0084 38.8143 91.0084 40.0634C91.0084 41.3124 90.5547 42.5133 89.7418 43.4158C88.9289 44.3183 87.8196 44.8528 86.6449 44.908H85.1098C85.0157 44.9083 84.9224 44.8888 84.8354 44.8507C84.7483 44.8126 84.6692 44.7565 84.6027 44.6858C84.5361 44.6151 84.4833 44.5311 84.4474 44.4386C84.4115 44.3461 84.3932 44.247 84.3935 44.147" fill="white"/>
<path d="M96.3779 41.1103L95.3256 38.1326L94.2667 41.1103H96.3779ZM96.9118 42.6346H93.7461L93.1076 44.4353C93.0522 44.5749 92.9594 44.6942 92.8407 44.7782C92.7221 44.8622 92.5828 44.9074 92.4402 44.908C92.3564 44.9083 92.2731 44.8947 92.1932 44.8678C92.014 44.7931 91.869 44.6474 91.7889 44.4613C91.7088 44.2753 91.6998 44.0635 91.7639 43.8705L94.6382 35.7103C94.6936 35.5645 94.7895 35.4401 94.9131 35.3536C95.0367 35.2671 95.1821 35.2225 95.33 35.2258C95.4778 35.2207 95.6234 35.2647 95.7466 35.3515C95.8697 35.4383 95.9644 35.5637 96.0175 35.7103L98.8918 43.8705C98.9358 43.9858 98.9524 44.1109 98.9399 44.2346C98.9274 44.3583 98.8863 44.4768 98.8202 44.5795C98.7541 44.6823 98.6651 44.766 98.5611 44.8233C98.4572 44.8806 98.3415 44.9097 98.2244 44.908C98.081 44.9112 97.9401 44.8677 97.8207 44.7831C97.7014 44.6986 97.6093 44.5772 97.557 44.4353L96.9118 42.6346Z" fill="white"/>
<path d="M104.451 38.1964C104.454 38.0084 104.421 37.8217 104.355 37.6472C104.29 37.4727 104.192 37.3139 104.067 37.18C103.943 37.0461 103.795 36.9397 103.632 36.8671C103.469 36.7945 103.293 36.7572 103.116 36.7572H101.517V39.6096H103.116C103.47 39.6096 103.81 39.4602 104.06 39.1943C104.311 38.9284 104.451 38.5677 104.451 38.1917M106.271 43.7618C106.301 43.8572 106.313 43.958 106.306 44.0584C106.3 44.1587 106.274 44.2567 106.232 44.3467C106.19 44.4367 106.131 44.5169 106.059 44.5828C105.988 44.6487 105.905 44.699 105.815 44.7307C105.722 44.758 105.626 44.7723 105.53 44.7733H105.517C105.337 44.7746 105.161 44.7213 105.01 44.6197C104.836 44.4965 104.693 44.3302 104.594 44.1352C104.385 43.6131 104.291 43.0473 104.32 42.4809C104.319 42.2705 104.265 42.0641 104.164 41.883C104.064 41.7197 103.93 41.5824 103.773 41.4813C103.549 41.3298 103.303 41.2181 103.045 41.1504H101.51V44.1565C101.508 44.3598 101.431 44.554 101.295 44.6967C101.158 44.8393 100.974 44.9187 100.783 44.9174C100.689 44.9177 100.595 44.8983 100.508 44.8601C100.421 44.822 100.342 44.766 100.276 44.6953C100.209 44.6245 100.156 44.5405 100.12 44.4481C100.084 44.3556 100.066 44.2565 100.066 44.1565V35.9797C100.065 35.8794 100.083 35.7799 100.119 35.687C100.154 35.5941 100.207 35.5097 100.274 35.4388C100.34 35.3679 100.42 35.3118 100.507 35.2741C100.595 35.2363 100.688 35.2174 100.783 35.2187H103.11C103.684 35.2198 104.244 35.4091 104.713 35.7608C105.183 36.1125 105.538 36.6095 105.732 37.1839C105.925 37.7583 105.947 38.3821 105.794 38.9702C105.642 39.5583 105.322 40.082 104.878 40.4698C105.057 40.6122 105.211 40.7856 105.334 40.9827C105.617 41.4233 105.767 41.9452 105.764 42.4786C105.752 42.7515 105.769 43.0251 105.815 43.2939C105.921 43.329 106.017 43.39 106.096 43.4722C106.176 43.5543 106.235 43.6552 106.271 43.7665" fill="white"/>
<path d="M109.172 43.379H109.977C110.803 43.379 111.596 43.0304 112.18 42.4099C112.764 41.7895 113.092 40.9479 113.092 40.0704C113.092 39.193 112.764 38.3514 112.18 37.731C111.596 37.1105 110.803 36.7619 109.977 36.7619H109.172V43.379ZM107.724 44.1541V35.9797C107.722 35.8795 107.74 35.78 107.775 35.6872C107.81 35.5943 107.863 35.5099 107.929 35.4389C107.996 35.368 108.075 35.3119 108.163 35.2741C108.25 35.2363 108.344 35.2174 108.438 35.2187H109.973C111.148 35.2739 112.257 35.8084 113.07 36.7109C113.883 37.6134 114.336 38.8143 114.336 40.0634C114.336 41.3124 113.883 42.5133 113.07 43.4158C112.257 44.3183 111.148 44.8528 109.973 44.908H108.438C108.344 44.9083 108.251 44.8888 108.164 44.8507C108.077 44.8125 107.998 44.7564 107.931 44.6857C107.865 44.6149 107.813 44.5309 107.777 44.4384C107.741 44.346 107.723 44.2469 107.724 44.147" fill="white"/>
<path d="M119.394 42.5046C119.509 42.3594 119.673 42.2678 119.851 42.2497C120.028 42.2316 120.206 42.2883 120.344 42.4077C120.916 42.9063 121.902 43.4877 122.827 43.4759C123.406 43.487 123.974 43.3079 124.453 42.963C124.616 42.8576 124.752 42.7117 124.85 42.5379C124.947 42.3642 125.004 42.1678 125.014 41.9658C125.017 41.8086 124.976 41.6541 124.896 41.5215C124.797 41.3552 124.664 41.2147 124.507 41.1103C123.956 40.7805 123.353 40.5602 122.727 40.4604H122.7C122.122 40.3555 121.558 40.1737 121.023 39.9192C120.53 39.6901 120.11 39.3152 119.813 38.8392C119.615 38.4959 119.511 38.1004 119.515 37.6978C119.527 37.2977 119.627 36.9063 119.807 36.5549C119.988 36.2036 120.243 35.9021 120.554 35.6748C121.212 35.1864 121.999 34.9301 122.803 34.9422C124.051 34.9422 124.974 35.5921 125.637 36.0506C125.784 36.1553 125.885 36.3177 125.92 36.502C125.954 36.6864 125.918 36.8776 125.819 37.0337C125.773 37.1132 125.712 37.182 125.639 37.2357C125.567 37.2895 125.486 37.3273 125.399 37.3467C125.313 37.3661 125.224 37.3668 125.138 37.3488C125.051 37.3307 124.969 37.2943 124.896 37.2416C124.229 36.769 123.597 36.3554 122.803 36.3554C122.282 36.3472 121.773 36.5125 121.346 36.8281C121.203 36.9199 121.083 37.0469 120.997 37.1983C120.911 37.3497 120.86 37.5211 120.849 37.6978C120.842 37.8338 120.874 37.969 120.941 38.0853C121.035 38.2294 121.155 38.3523 121.294 38.4469C121.794 38.7594 122.347 38.9664 122.921 39.0566H122.945C123.564 39.1711 124.167 39.3664 124.74 39.638C125.267 39.8829 125.719 40.281 126.042 40.7865C126.246 41.1426 126.353 41.5514 126.353 41.9681C126.342 42.3939 126.235 42.8106 126.041 43.1838C125.848 43.5569 125.573 43.8758 125.241 44.1139C124.535 44.6391 123.689 44.9114 122.827 44.8914C121.423 44.8773 120.24 44.1305 119.49 43.5066C119.354 43.3842 119.268 43.2111 119.248 43.023C119.229 42.8348 119.278 42.6459 119.386 42.4951" fill="white"/>
<path d="M127.381 39.9286C127.404 38.599 127.917 37.3318 128.809 36.3995C129.702 35.4671 130.903 34.9439 132.155 34.9422C133.242 34.9351 134.299 35.3154 135.159 36.0222C135.308 36.1555 135.404 36.3436 135.429 36.5491C135.453 36.7546 135.403 36.9622 135.29 37.1306C135.168 37.2932 134.992 37.3996 134.798 37.4278C134.604 37.456 134.407 37.4037 134.249 37.2818C133.657 36.7747 132.916 36.5052 132.155 36.5209C131.284 36.526 130.446 36.8824 129.813 37.5181C129.207 38.1557 128.863 39.0226 128.858 39.9286C128.858 40.3773 128.942 40.8216 129.105 41.2355C129.268 41.6493 129.507 42.0245 129.808 42.3391C130.442 42.9749 131.279 43.3313 132.151 43.3364C132.911 43.3497 133.651 43.0805 134.244 42.5755C134.405 42.4601 134.6 42.4117 134.792 42.4397C134.984 42.4676 135.16 42.5698 135.285 42.7267C135.399 42.8949 135.449 43.1027 135.425 43.3083C135.401 43.5139 135.304 43.7021 135.154 43.8351C134.295 44.5419 133.237 44.9222 132.151 44.9151C130.898 44.9171 129.695 44.3949 128.803 43.4616C127.91 42.5283 127.399 41.2591 127.381 39.9286" fill="white"/>
<path d="M137.163 44.1541V35.9797C137.161 35.8795 137.179 35.78 137.214 35.6872C137.25 35.5943 137.302 35.5099 137.369 35.4389C137.435 35.368 137.515 35.3119 137.602 35.2741C137.689 35.2363 137.783 35.2174 137.877 35.2187C137.972 35.2172 138.066 35.2357 138.155 35.2732C138.243 35.3108 138.323 35.3666 138.391 35.4374C138.459 35.5082 138.512 35.5926 138.549 35.6857C138.586 35.7788 138.605 35.8787 138.605 35.9797V39.3048H141.984V35.9797C141.982 35.8795 142 35.78 142.035 35.6872C142.07 35.5943 142.123 35.5099 142.19 35.4389C142.256 35.368 142.335 35.3119 142.423 35.2741C142.51 35.2363 142.604 35.2174 142.698 35.2187C142.793 35.2172 142.888 35.2357 142.976 35.2732C143.064 35.3107 143.145 35.3665 143.213 35.4372C143.28 35.508 143.334 35.5924 143.371 35.6855C143.408 35.7787 143.427 35.8786 143.428 35.9797V44.1541C143.428 44.2552 143.409 44.3554 143.372 44.4486C143.335 44.5419 143.281 44.6264 143.213 44.6973C143.145 44.7681 143.065 44.8239 142.976 44.8613C142.888 44.8987 142.793 44.917 142.698 44.9151C142.604 44.9164 142.51 44.8975 142.423 44.8597C142.335 44.8219 142.256 44.7658 142.19 44.6949C142.123 44.6239 142.07 44.5395 142.035 44.4466C142 44.3538 141.982 44.2543 141.984 44.1541V40.829H138.605V44.1541C138.605 44.255 138.586 44.355 138.549 44.4481C138.512 44.5412 138.459 44.6256 138.391 44.6964C138.323 44.7672 138.243 44.823 138.155 44.8606C138.066 44.8981 137.972 44.9166 137.877 44.9151C137.783 44.9164 137.689 44.8975 137.602 44.8597C137.515 44.8219 137.435 44.7658 137.369 44.6949C137.302 44.6239 137.25 44.5395 137.214 44.4466C137.179 44.3538 137.161 44.2543 137.163 44.1541Z" fill="white"/>
<path d="M152.353 39.9286C152.351 39.0308 152.034 38.1661 151.463 37.504C151.2 37.1945 150.879 36.9471 150.521 36.7778C150.162 36.6085 149.774 36.521 149.382 36.521C148.99 36.521 148.602 36.6085 148.243 36.7778C147.885 36.9471 147.564 37.1945 147.301 37.504C146.732 38.1656 146.422 39.0326 146.433 39.9286C146.425 40.8241 146.744 41.688 147.323 42.3391C147.584 42.6526 147.904 42.9036 148.263 43.0755C148.622 43.2474 149.011 43.3363 149.404 43.3363C149.798 43.3363 150.187 43.2474 150.546 43.0755C150.905 42.9036 151.225 42.6526 151.486 42.3391C152.058 41.6836 152.376 40.8226 152.375 39.9286M152.544 36.424C153.389 37.3704 153.859 38.6247 153.859 39.9286C153.859 41.2326 153.389 42.4869 152.544 43.4333C152.15 43.8953 151.669 44.2655 151.133 44.5205C150.597 44.7756 150.017 44.9099 149.43 44.9151C148.832 44.912 148.24 44.7789 147.692 44.5241C147.144 44.2693 146.65 43.8981 146.242 43.4333C145.415 42.4777 144.956 41.2269 144.956 39.9286C144.956 38.6304 145.415 37.3796 146.242 36.424C146.647 35.9588 147.137 35.5871 147.683 35.3322C148.229 35.0772 148.818 34.9445 149.414 34.9422C150.002 34.9442 150.583 35.0771 151.12 35.3323C151.656 35.5876 152.136 35.9594 152.529 36.424" fill="white"/>
<path d="M162.629 39.9286C162.628 39.0307 162.311 38.1656 161.739 37.504C161.48 37.1978 161.163 36.9523 160.81 36.7831C160.456 36.6139 160.073 36.5246 159.686 36.5209C159.289 36.5185 158.897 36.6049 158.534 36.7743C158.171 36.9436 157.846 37.1923 157.579 37.504C157.002 38.162 156.684 39.0294 156.689 39.9286C156.681 40.8241 157 41.688 157.579 42.3391C157.839 42.6525 158.159 42.9035 158.518 43.0754C158.877 43.2473 159.266 43.3362 159.659 43.3362C160.052 43.3362 160.441 43.2473 160.8 43.0754C161.159 42.9035 161.479 42.6525 161.739 42.3391C162.313 41.6845 162.631 40.8229 162.629 39.9286M162.798 36.424C163.641 37.3712 164.11 38.6252 164.11 39.9286C164.11 41.2321 163.641 42.4861 162.798 43.4333C162.403 43.8953 161.923 44.2655 161.387 44.5205C160.851 44.7756 160.271 44.9099 159.683 44.9151C159.085 44.912 158.494 44.7789 157.945 44.5241C157.397 44.2693 156.904 43.8981 156.496 43.4333C155.667 42.4782 155.208 41.2272 155.208 39.9286C155.208 38.6301 155.667 37.3791 156.496 36.424C156.902 35.9567 157.395 35.5839 157.944 35.3289C158.492 35.0739 159.085 34.9422 159.683 34.9422C160.271 34.9442 160.852 35.0771 161.389 35.3323C161.925 35.5876 162.405 35.9594 162.798 36.424" fill="white"/>
<path d="M165.959 44.1541V35.9797C165.959 35.8795 165.977 35.7802 166.013 35.6876C166.049 35.5949 166.102 35.5108 166.169 35.4401C166.236 35.3693 166.315 35.3133 166.403 35.2753C166.49 35.2373 166.584 35.2181 166.678 35.2187C166.869 35.2175 167.054 35.2968 167.19 35.4393C167.327 35.5819 167.405 35.7762 167.408 35.9797V43.379H170.927C171.119 43.3791 171.302 43.4601 171.438 43.6041C171.573 43.7482 171.649 43.9434 171.649 44.147C171.649 44.3506 171.573 44.5459 171.438 44.6899C171.302 44.8339 171.119 44.9149 170.927 44.9151H166.678C166.584 44.9154 166.491 44.8959 166.404 44.8577C166.317 44.8196 166.238 44.7635 166.171 44.6928C166.105 44.622 166.053 44.538 166.017 44.4455C165.981 44.3531 165.963 44.254 165.964 44.1541" fill="white"/>
<path d="M171.628 31.4163H55.6884V32.5695H171.628V31.4163Z" fill="white"/>
<path d="M171.628 47.2665H55.6884V48.4198H171.628V47.2665Z" fill="white"/>
<path d="M47.2835 42.6889C47.2173 42.4482 47.1027 42.2257 46.9476 42.0367C46.6905 41.7376 46.3835 41.4916 46.0421 41.3111L45.9331 41.2521L45.902 41.2332L45.8775 41.2048L45.7952 41.1244L45.4593 40.7889L44.7919 40.1153L43.4304 38.7707L42.06 37.426L40.6406 36.1475C40.1779 35.7244 39.7196 35.292 39.2925 34.843C39.0814 34.6332 38.8851 34.4073 38.7051 34.1671C38.6725 34.1212 38.6428 34.073 38.6162 34.0229C38.6162 34.0229 38.6162 34.004 38.6006 33.9851C38.585 33.9662 38.5895 33.9497 38.5828 33.9355L38.5427 33.8102C38.4849 33.6472 38.4204 33.4841 38.3492 33.3258C38.0588 32.7151 37.6463 32.1792 37.1406 31.7555C36.6349 31.3318 36.0482 31.0305 35.4215 30.8727C35.969 31.133 36.4627 31.5056 36.8743 31.9692C37.2858 32.4327 37.6071 32.9781 37.8197 33.5739C37.8687 33.7173 37.9109 33.8638 37.9465 34.0135L37.971 34.1245L37.9866 34.1954C37.9927 34.221 38.0001 34.2463 38.0088 34.2711C38.0448 34.3721 38.0895 34.4694 38.1423 34.5617C38.3186 34.8576 38.5157 35.1388 38.7318 35.403C39.1501 35.9111 39.5883 36.3838 40.0311 36.8564C40.4738 37.3291 40.9343 37.7805 41.3659 38.22L42.0132 38.9101L42.6807 39.6049L44.0155 40.9779L44.6829 41.6609L45.021 42.0012L45.1078 42.0886L45.1545 42.1335C45.1859 42.1652 45.2193 42.1944 45.2546 42.221L45.2924 42.247H45.3102L45.3347 42.2635L45.3703 42.2824L45.4259 42.3132L45.5216 42.3651C45.7382 42.4756 45.9342 42.627 46.1 42.8118C46.1499 42.8693 46.1884 42.9368 46.2135 43.0103C46.2291 43.0674 46.2291 43.1281 46.2135 43.1852C46.1955 43.2512 46.1701 43.3147 46.1378 43.3742L46.0844 43.464C46.0466 43.5279 45.9977 43.6177 45.9532 43.7004C45.9087 43.7831 45.8708 43.8634 45.8308 43.9367C45.6777 44.2718 45.562 44.6247 45.486 44.9883C45.4482 45.1679 45.4215 45.3523 45.3992 45.5224L45.3725 45.7587V45.7729L45.1968 45.884C45.07 45.9644 44.9387 46.0423 44.8052 46.1203C44.2886 46.4266 43.7518 46.6928 43.199 46.9167C43.0795 46.9619 42.9567 46.9967 42.8319 47.0207C42.7852 47.0207 42.7385 47.0207 42.7741 47.0349H42.7963H42.783L42.7563 47.0231C42.7385 47.0231 42.7563 47.0231 42.7563 47.0231C42.7408 47.013 42.726 47.002 42.7118 46.99C42.5157 46.7907 42.3458 46.5641 42.2068 46.3165C42.12 46.1794 42.0333 46.04 41.9332 45.8958C41.8817 45.8177 41.8252 45.7435 41.7641 45.6737C41.6884 45.5784 41.5972 45.4983 41.4949 45.4373C41.4569 45.4188 41.4174 45.4038 41.377 45.3924L41.308 45.3806H41.2791H41.1701L40.9476 45.357L40.4916 45.3026C39.8842 45.2247 39.2769 45.1207 38.6762 44.9931C38.3759 44.9269 38.0778 44.8489 37.7863 44.7567C37.4895 44.6732 37.2076 44.5382 36.9521 44.3574C37.1789 44.5878 37.4426 44.7735 37.7307 44.9056C38.0138 45.048 38.3042 45.1735 38.6006 45.2814C39.1928 45.496 39.795 45.6782 40.4048 45.8273L40.8631 45.936L41.0856 45.9856L41.2057 46.0069H41.2368H41.2057C41.2325 46.0369 41.2578 46.0684 41.2813 46.1014C41.3147 46.151 41.3525 46.2125 41.3881 46.2763C41.4593 46.4063 41.5283 46.5481 41.6106 46.6922C41.6929 46.8364 41.7596 46.99 41.8486 47.1436C41.9427 47.3159 42.057 47.4748 42.189 47.6163C42.2314 47.6594 42.2776 47.6982 42.3269 47.7321C42.356 47.7539 42.3865 47.7737 42.4181 47.7911L42.4426 47.8053H42.456L42.4893 47.8219H42.5049C42.6335 47.8686 42.7699 47.8863 42.9053 47.8738C43.0882 47.8567 43.2691 47.8219 43.4459 47.7699C44.0649 47.5788 44.6677 47.3329 45.2479 47.0349C45.3925 46.9616 45.5349 46.8884 45.6795 46.7986L45.902 46.6757L46.0221 46.6024C46.0546 46.5808 46.0858 46.5571 46.1156 46.5315C46.146 46.5075 46.1736 46.4797 46.1979 46.4488C46.2258 46.4162 46.2504 46.3805 46.2713 46.3425C46.3161 46.2607 46.3491 46.1723 46.3692 46.0801C46.3848 46.0163 46.3914 45.9667 46.4003 45.9194L46.4381 45.6689C46.4626 45.5153 46.4893 45.3735 46.5249 45.2341C46.5921 44.9592 46.6891 44.6935 46.8141 44.4424C46.8453 44.3786 46.8764 44.3148 46.912 44.2534C46.9476 44.1919 46.9743 44.1423 47.021 44.069L47.0922 43.9509C47.1189 43.9036 47.1456 43.8563 47.1701 43.8044C47.2226 43.6958 47.2644 43.5818 47.2946 43.464C47.3549 43.2091 47.3511 42.9418 47.2835 42.6889V42.6889Z" fill="#0F2D52"/>
<path d="M37.7352 42.9772C37.1169 43.2177 36.4816 43.4058 35.8353 43.5397C35.2476 43.6715 34.6396 43.6626 34.0556 43.5137C33.4941 43.3403 32.9919 42.998 32.6095 42.5282C32.1896 41.9991 31.8172 41.4294 31.4972 40.8267C31.5179 41.5778 31.721 42.3104 32.0867 42.9536C32.2808 43.2923 32.5302 43.5916 32.8231 43.8374C33.1255 44.0914 33.4727 44.2787 33.8442 44.3881C34.5698 44.58 35.334 44.5221 36.0266 44.2226C36.6814 43.958 37.2672 43.531 37.7352 42.9772V42.9772Z" fill="#0F2D52"/>
<path d="M32.169 47.2854C32.0044 46.8813 31.8442 46.4961 31.6996 46.1038C31.664 46.0093 31.6262 45.9076 31.595 45.8155C31.5639 45.7233 31.5328 45.6382 31.5083 45.5484C31.4578 45.3666 31.4206 45.1809 31.3971 44.9931C31.3142 44.1654 31.4457 43.3295 31.7775 42.5755C31.4098 42.8567 31.1055 43.2211 30.8866 43.6425C30.6677 44.0638 30.5396 44.5316 30.5116 45.012C30.4901 45.2631 30.4954 45.516 30.5272 45.7658C30.542 45.8907 30.5636 46.0146 30.5917 46.1369C30.6206 46.255 30.6473 46.3732 30.6785 46.4772C30.8042 46.9111 30.9528 47.3371 31.1234 47.7533C31.4504 48.5639 31.773 49.3083 32.0133 50.1166C32.2536 50.9248 32.4582 51.7543 32.7029 52.631C32.9291 51.7454 32.9895 50.8213 32.8809 49.911C32.7649 49.0037 32.5251 48.1192 32.169 47.2854V47.2854Z" fill="#0F2D52"/>
<path d="M31.7018 54.0561C31.6534 53.5457 31.5791 53.0384 31.4794 52.5365C31.38 52.0298 31.256 51.5289 31.1078 51.0359C30.5345 49.0244 29.5344 47.1795 28.1846 45.643C27.8441 45.2585 27.48 44.8985 27.0945 44.5653C26.8943 44.3928 26.7252 44.2486 26.5561 44.0927C26.3871 43.9367 26.2224 43.7784 26.0645 43.62C25.4315 42.9635 24.9053 42.2001 24.5072 41.3608C24.1028 40.5166 23.8751 39.5895 23.8398 38.643C23.8119 37.6567 24.0072 36.6777 24.4093 35.7883C23.7426 36.5718 23.322 37.5563 23.2058 38.6052C23.0859 39.6811 23.2229 40.7718 23.604 41.7767C23.9866 42.7786 24.553 43.6895 25.2703 44.4566C25.446 44.648 25.6307 44.83 25.8198 45.0072C26.0089 45.1845 26.2158 45.3499 26.3848 45.4941C26.7355 45.7976 27.0704 46.1211 27.3882 46.463C28.6639 47.8648 29.6711 49.5166 30.3537 51.3265C30.525 51.7826 30.6963 52.2435 30.8387 52.7161C30.981 53.1888 31.1078 53.6614 31.228 54.1341C31.3526 54.6729 31.4505 55.2141 31.5528 55.7623L31.7975 55.8001V55.5638C31.7894 55.0599 31.7575 54.5566 31.7018 54.0561V54.0561Z" fill="#0F2D52"/>
<path d="M28.1245 42.7763C27.8643 42.4715 27.5906 42.1903 27.3459 41.9114C27.1068 41.6503 26.8908 41.3663 26.7007 41.063C26.5202 40.7662 26.371 40.4492 26.2558 40.1177C26.0013 39.4583 25.8764 38.7506 25.8887 38.0381C25.9153 37.3339 26.104 36.6475 26.4382 36.0388C26.7961 35.3991 27.2466 34.8233 27.773 34.3325C28.0378 34.0796 28.3203 33.8362 28.6118 33.6023C28.9032 33.3683 29.2124 33.158 29.5239 32.9429C30.1584 32.5215 30.815 32.1388 31.4905 31.7968C30.7365 31.9287 29.999 32.1515 29.2925 32.4608C28.9338 32.6127 28.5839 32.7871 28.2447 32.9831C27.8982 33.1767 27.5651 33.3962 27.248 33.6401C26.5842 34.1318 26.0124 34.7505 25.5617 35.4645C25.0935 36.2153 24.821 37.0846 24.7719 37.9837C24.7373 38.8692 24.8894 39.7517 25.2169 40.5667C25.3748 40.9775 25.5803 41.3657 25.8287 41.7223C26.0781 42.0692 26.3623 42.3862 26.6763 42.6676C27.2792 43.2041 27.8598 43.6366 28.3737 44.1825C28.8961 44.7456 29.3703 45.357 29.7908 46.0093C29.6018 45.2101 29.2834 44.4521 28.8498 43.7689C28.6317 43.4193 28.3893 43.0875 28.1245 42.7763V42.7763Z" fill="#0F2D52"/>
<path d="M27.1524 32.5199C27.9578 32.0888 28.7921 31.7215 29.6485 31.421C30.0756 31.265 30.5072 31.1232 30.9432 31.0003C31.2302 30.92 31.5305 30.8444 31.822 30.7829L33.1368 34.349L32.8008 30.3008C32.7153 29.5325 32.7983 28.7536 33.0433 28.025C33.1701 27.6803 33.3506 27.3607 33.5772 27.0797C33.6418 26.9994 33.7085 26.9261 33.7797 26.8434C33.8353 27.5524 33.8887 28.2614 33.9532 28.9491L34.0133 29.6297L34.5138 29.261C34.638 29.1667 34.7463 29.0509 34.8342 28.9183C34.9093 28.8125 34.9784 28.702 35.0411 28.5875C35.1657 28.3677 35.2636 28.1479 35.3726 27.9258C35.4816 27.7036 35.595 27.4106 35.6951 27.1483C35.8285 27.5571 35.9035 27.9849 35.9176 28.4173C35.9317 28.7437 35.9146 29.0707 35.8664 29.3933C35.8152 29.7188 35.7263 30.0363 35.6017 30.3386C35.771 30.0526 35.9062 29.7454 36.0044 29.4241C36.1046 29.0982 36.1695 28.7612 36.1979 28.4197C36.2568 27.7202 36.1568 27.016 35.9065 26.366L35.7129 25.8603L35.466 26.3802C35.2658 26.7985 35.0522 27.2192 34.8297 27.6186C34.7793 27.7131 34.7259 27.8052 34.6696 27.8951C34.6584 27.2357 34.6429 26.5787 34.6317 25.9194V25.2104L34.0088 25.4822C33.9243 25.5176 33.882 25.5413 33.822 25.572L33.664 25.6642C33.5633 25.7277 33.466 25.7971 33.3726 25.8721C33.1872 26.0203 33.0145 26.1856 32.8564 26.366C32.5352 26.7296 32.2742 27.1483 32.0845 27.6044C31.8295 28.2377 31.6921 28.9174 31.6796 29.606C31.3281 29.6746 30.9966 29.7549 30.654 29.8424C30.1883 29.9684 29.7285 30.1126 29.2747 30.2748C28.3691 30.6077 27.488 31.0114 26.6385 31.4824C25.7855 31.9549 24.9746 32.5086 24.2158 33.1367C23.4556 33.752 22.7531 34.4436 22.1179 35.2022L22.0868 35.2424V35.2565C21.2755 36.3078 20.6847 37.5308 20.3537 38.8439C19.9982 40.2078 20.0237 41.6521 20.4271 43.0009C20.8465 44.3284 21.5886 45.5146 22.5784 46.4394C23.5208 47.3543 24.6389 48.0412 25.8554 48.4528C24.8305 47.7304 23.8928 46.8772 23.0634 45.9124C22.2614 44.9846 21.6494 43.8902 21.2658 42.6984C20.9133 41.5021 20.828 40.235 21.0167 38.9975C21.0935 38.4821 21.2004 37.9722 21.337 37.4709C21.3103 37.6529 21.2881 37.8325 21.2747 38.0144C21.215 38.9549 21.3276 39.8987 21.6062 40.7936C21.8881 41.6688 22.2948 42.493 22.812 43.2372C23.0668 43.5971 23.3401 43.9419 23.6307 44.2699C23.9221 44.5984 24.2291 44.908 24.545 45.2152C24.2714 44.8725 24.0111 44.5228 23.7708 44.1588C23.5294 43.801 23.3066 43.4295 23.1034 43.0458C22.6841 42.2952 22.3693 41.4841 22.1691 40.6376C21.9757 39.8125 21.9341 38.9555 22.0467 38.1137C22.1009 37.7007 22.1941 37.2945 22.3248 36.9013C22.3894 36.7067 22.4636 36.5158 22.5473 36.3294C22.5895 36.2373 22.634 36.1475 22.6807 36.0624C22.7275 35.9773 22.7608 35.9182 22.7964 35.8639C23.4258 35.1891 24.1075 34.5717 24.8342 34.0182C25.5722 33.4605 26.3469 32.9598 27.1524 32.5199V32.5199Z" fill="#0F2D52"/>
<path d="M175.999 33.2761C176.009 33.6572 175.911 34.0327 175.719 34.3543C175.526 34.6759 175.247 34.9291 174.918 35.0811C174.589 35.2332 174.225 35.2773 173.872 35.2078C173.519 35.1383 173.194 34.9583 172.938 34.6909C172.682 34.4236 172.507 34.0811 172.436 33.7075C172.365 33.3338 172.401 32.9461 172.538 32.5941C172.676 32.2421 172.91 31.9419 173.209 31.732C173.509 31.5221 173.861 31.4122 174.22 31.4163C174.451 31.4141 174.681 31.4605 174.896 31.5528C175.111 31.6451 175.307 31.7815 175.472 31.9543C175.638 32.127 175.769 32.3327 175.86 32.5595C175.95 32.7863 175.998 33.0298 175.999 33.2761V33.2761ZM172.849 33.2761C172.844 33.4697 172.876 33.6624 172.943 33.8427C173.009 34.023 173.109 34.1873 173.237 34.3259C173.364 34.4645 173.516 34.5745 173.684 34.6495C173.852 34.7245 174.033 34.763 174.215 34.7626C174.395 34.7628 174.573 34.7243 174.739 34.6495C174.904 34.5747 175.054 34.4652 175.178 34.3275C175.303 34.1897 175.4 34.0266 175.464 33.848C175.528 33.6694 175.557 33.4789 175.55 33.288C175.55 32.9075 175.408 32.5426 175.154 32.2736C174.901 32.0046 174.558 31.8535 174.2 31.8535C173.841 31.8535 173.498 32.0046 173.245 32.2736C172.991 32.5426 172.849 32.9075 172.849 33.288V33.2761ZM173.926 34.2403H173.521V32.3805C173.742 32.3445 173.965 32.3255 174.188 32.3238C174.397 32.2999 174.607 32.3516 174.785 32.4703C174.843 32.5157 174.89 32.5756 174.922 32.6448C174.954 32.7139 174.969 32.7903 174.967 32.8673C174.963 32.973 174.926 33.0742 174.861 33.1547C174.797 33.2353 174.709 33.2905 174.611 33.3116V33.3329C174.78 33.3896 174.867 33.5385 174.92 33.7866C174.942 33.9434 174.985 34.0961 175.047 34.2403H174.622C174.551 34.0989 174.504 33.9453 174.482 33.7866C174.451 33.5952 174.344 33.503 174.119 33.503H173.926V34.2403ZM173.926 33.1982H174.119C174.342 33.1982 174.524 33.1178 174.524 32.924C174.524 32.7302 174.406 32.6404 174.151 32.6404C174.076 32.639 174.001 32.6469 173.928 32.6641L173.926 33.1982Z" fill="white"/>
</g>
<g opacity="0.646">
<path d="M1264.08 49.0842C1264.05 49.0575 1264.01 49.0363 1263.97 49.0219C1263.93 49.0074 1263.89 49 1263.85 49C1263.8 49 1263.76 49.0074 1263.72 49.0219C1263.68 49.0363 1263.64 49.0575 1263.61 49.0842L1260.18 52.3043L1256.75 49.0842C1256.72 49.0575 1256.68 49.0363 1256.64 49.0219C1256.6 49.0074 1256.56 49 1256.51 49C1256.47 49 1256.43 49.0074 1256.39 49.0219C1256.35 49.0363 1256.31 49.0575 1256.28 49.0842C1256.21 49.1384 1256.18 49.2116 1256.18 49.2878C1256.18 49.3641 1256.21 49.4372 1256.28 49.4914L1259.93 52.9178C1259.96 52.946 1260 52.9678 1260.04 52.9819C1260.09 52.996 1260.13 53.0019 1260.18 52.9994C1260.23 53.0019 1260.27 52.996 1260.32 52.9819C1260.36 52.9678 1260.4 52.946 1260.43 52.9178L1264.08 49.4907C1264.14 49.4366 1264.18 49.3636 1264.18 49.2874C1264.18 49.2113 1264.14 49.1383 1264.08 49.0842V49.0842Z" fill="#4D4D4D"/>
</g>
<rect x="12" y="88" width="1256" height="624" rx="5" fill="white"/>
<defs>
<clipPath id="clip0_1_2">
<rect width="160" height="38" fill="white" transform="translate(16 21)"/>
</clipPath>
</defs>
</svg>
