<svg width="1280" height="720" viewBox="0 0 1280 720" fill="none" xmlns="http://www.w3.org/2000/svg">
<rect width="1280" height="720" fill="#EFEFEF"/>
<path d="M1280 0H0V80H1280V0Z" fill="#0C2752"/>
<g clip-path="url(#clip0_51_4)">
<path d="M48.9699 39.9286C48.9624 43.0917 48.0726 46.1814 46.4129 48.8076C44.7532 51.4337 42.398 53.4784 39.6449 54.6834C36.8918 55.8883 33.8642 56.1995 30.9447 55.5775C28.0252 54.9556 25.3447 53.4284 23.2419 51.189C21.139 48.9496 19.7081 46.0983 19.13 42.9954C18.5518 39.8925 18.8523 36.6772 19.9935 33.7557C21.1347 30.8341 23.0654 28.3374 25.5418 26.5809C28.0181 24.8244 30.9289 23.887 33.9066 23.887C37.9065 23.8926 41.7406 25.5858 44.5655 28.5941C47.3903 31.6024 48.9746 35.6795 48.9699 39.9286" fill="white"/>
<path d="M33.9087 22.039C30.5754 22.0291 27.3143 23.0702 24.5383 25.0303C21.7623 26.9904 19.5962 29.7815 18.3143 33.0501C17.0323 36.3187 16.6923 39.9179 17.337 43.3919C17.9818 46.866 19.5825 50.0587 21.9364 52.5658C24.2903 55.0729 27.2916 56.7817 30.5602 57.4759C33.8289 58.17 37.2179 57.8182 40.2983 56.4651C43.3786 55.112 46.0118 52.8184 47.8643 49.8747C49.7169 46.931 50.7055 43.4696 50.7051 39.9287C50.7057 35.192 48.9377 30.6485 45.7889 27.2947C42.6401 23.941 38.3677 22.0508 33.9087 22.039M33.9087 59C31.554 58.9969 29.2229 58.5011 27.0485 57.541C24.8742 56.5809 22.8991 55.1753 21.2361 53.4043C19.5732 51.6334 18.2548 49.5318 17.3564 47.2197C16.458 44.9075 15.9971 42.43 16 39.9287C16.013 36.4971 16.9004 33.1333 18.568 30.1943C20.2356 27.2554 22.6211 24.8508 25.4714 23.236C28.3218 21.6211 31.5305 20.8561 34.7571 21.0223C37.9837 21.1885 41.1077 22.2795 43.7977 24.1797C46.4876 26.0799 48.643 28.7183 50.0351 31.8149C51.4272 34.9114 52.0042 38.3506 51.7046 41.7674C51.4051 45.1842 50.2403 48.4511 48.3338 51.2213C46.4274 53.9916 43.8504 56.1618 40.8764 57.5017C38.6728 58.4955 36.3027 59.0051 33.9087 59" fill="white"/>
<path d="M56.0443 55.3559V51.2013C56.044 51.1503 56.0533 51.0998 56.0715 51.0526C56.0897 51.0054 56.1166 50.9626 56.1505 50.9265C56.1845 50.8905 56.2248 50.862 56.2692 50.8426C56.3136 50.8232 56.3612 50.8134 56.4092 50.8137H58.5716C58.6643 50.8214 58.7508 50.8659 58.814 50.9384C58.8771 51.0109 58.9122 51.1061 58.9122 51.2048C58.9122 51.3036 58.8771 51.3988 58.814 51.4713C58.7508 51.5438 58.6643 51.5883 58.5716 51.596H56.7785V52.8839H58.3202C58.416 52.8863 58.5073 52.928 58.5748 53.0003C58.6424 53.0725 58.6811 53.1697 58.6828 53.2715C58.6834 53.3227 58.6745 53.3735 58.6566 53.4211C58.6387 53.4686 58.6121 53.512 58.5784 53.5486C58.5448 53.5853 58.5046 53.6145 58.4603 53.6347C58.416 53.6548 58.3684 53.6655 58.3202 53.6662H56.7785V55.3559C56.7782 55.4071 56.7684 55.4577 56.7497 55.5049C56.731 55.5521 56.7037 55.5949 56.6694 55.6309C56.6351 55.6669 56.5945 55.6954 56.5498 55.7147C56.5052 55.734 56.4574 55.7437 56.4092 55.7434C56.3612 55.7438 56.3136 55.7339 56.2692 55.7146C56.2248 55.6952 56.1845 55.6667 56.1505 55.6306C56.1166 55.5946 56.0897 55.5517 56.0715 55.5046C56.0533 55.4574 56.044 55.4069 56.0443 55.3559" fill="white"/>
<path d="M63.15 53.2078C63.1512 52.7528 62.9925 52.3138 62.705 51.9765C62.5731 51.8205 62.4119 51.6953 62.2319 51.609C62.0519 51.5228 61.8569 51.4773 61.6594 51.4755C61.4565 51.4745 61.2557 51.5189 61.0702 51.6061C60.8846 51.6933 60.7185 51.8211 60.5827 51.9813C60.2924 52.3166 60.1333 52.7569 60.1377 53.2125C60.1317 53.667 60.2911 54.1064 60.5827 54.439C60.7177 54.5985 60.8827 54.7261 61.067 54.8136C61.2513 54.9011 61.4509 54.9466 61.6528 54.9471C61.8507 54.944 62.0458 54.8973 62.2258 54.8098C62.4058 54.7223 62.5667 54.5961 62.6984 54.439C62.9872 54.1046 63.1462 53.6664 63.1433 53.2125M63.2278 51.4306C63.6577 51.9115 63.8974 52.5494 63.8974 53.2125C63.8974 53.8757 63.6577 54.5135 63.2278 54.9944C63.0275 55.2293 62.7835 55.4175 62.5113 55.5473C62.239 55.677 61.9444 55.7455 61.6461 55.7483C61.3419 55.7469 61.0413 55.6793 60.7628 55.5496C60.4842 55.4199 60.2336 55.231 60.0265 54.9944C59.606 54.5085 59.3726 53.8726 59.3726 53.2125C59.3726 52.5525 59.606 51.9165 60.0265 51.4306C60.2327 51.1928 60.4831 51.003 60.7619 50.8733C61.0406 50.7435 61.3417 50.6766 61.6461 50.6768C61.9447 50.678 62.2398 50.7457 62.5122 50.8755C62.7847 51.0054 63.0284 51.1945 63.2278 51.4306" fill="white"/>
<path d="M66.8274 52.3286C66.8283 52.2327 66.8112 52.1376 66.7773 52.0488C66.7434 51.9599 66.6932 51.8791 66.6297 51.811C66.5662 51.7429 66.4906 51.6888 66.4073 51.6519C66.324 51.615 66.2347 51.596 66.1444 51.596H65.3324V53.047H66.1444C66.323 53.0477 66.4948 52.9737 66.6225 52.8411C66.7503 52.7084 66.8239 52.5278 66.8274 52.338M67.7529 55.1739C67.7843 55.2708 67.7786 55.3769 67.737 55.4693C67.6953 55.5618 67.6211 55.6331 67.5304 55.6678C67.4823 55.6804 67.433 55.6867 67.3836 55.6867V55.6867C67.2932 55.6884 67.2043 55.6621 67.1277 55.6111C67.0356 55.549 66.9592 55.4638 66.9052 55.363C66.7997 55.0965 66.7526 54.808 66.7673 54.5193C66.7673 54.4126 66.7396 54.3079 66.6872 54.2168C66.6369 54.1331 66.5692 54.0628 66.4892 54.0112C66.3751 53.9353 66.2505 53.8787 66.1199 53.8434H65.3391V55.3701C65.3379 55.4737 65.2982 55.5726 65.2286 55.6452C65.1589 55.7179 65.0651 55.7583 64.9675 55.7576C64.9197 55.7576 64.8724 55.7476 64.8283 55.7281C64.7841 55.7086 64.744 55.68 64.7103 55.644C64.6766 55.608 64.65 55.5652 64.6319 55.5182C64.6138 55.4712 64.6046 55.4209 64.6049 55.3701V51.2013C64.604 51.1504 64.6128 51.0997 64.6307 51.0524C64.6485 51.0051 64.6752 50.9621 64.709 50.926C64.7428 50.8898 64.7831 50.8613 64.8275 50.842C64.872 50.8227 64.9196 50.8131 64.9675 50.8138H66.1511C66.4431 50.8143 66.7278 50.9106 66.9665 51.0894C67.2051 51.2681 67.3861 51.5208 67.4846 51.8128C67.5831 52.1048 67.5944 52.422 67.517 52.7211C67.4396 53.0202 67.2773 53.2867 67.0521 53.4842C67.1391 53.5574 67.2142 53.6452 67.2745 53.7442C67.4194 53.9681 67.4969 54.2334 67.497 54.5051C67.4905 54.6444 67.4995 54.784 67.5237 54.9211C67.5753 54.9399 67.6221 54.9709 67.6607 55.0119C67.6992 55.0528 67.7285 55.1026 67.7462 55.1574" fill="white"/>
<path d="M70.1466 55.3559V51.2013C70.146 51.1502 70.1551 51.0996 70.1732 51.0523C70.1913 51.0049 70.2182 50.962 70.2522 50.9259C70.2862 50.8897 70.3266 50.8612 70.3712 50.842C70.4157 50.8227 70.4634 50.8131 70.5115 50.8138H72.6739C72.7705 50.8144 72.8629 50.8554 72.9312 50.928C72.9995 51.0005 73.0381 51.0987 73.0387 51.2013C73.0376 51.3044 72.999 51.4031 72.931 51.4766C72.863 51.5502 72.7709 51.5929 72.6739 51.596H70.8808V52.8839H72.4225C72.5183 52.8864 72.6096 52.9281 72.6772 53.0003C72.7447 53.0725 72.7834 53.1697 72.7851 53.2715C72.7857 53.3227 72.7768 53.3736 72.7589 53.4211C72.741 53.4687 72.7144 53.512 72.6808 53.5486C72.6471 53.5853 72.6069 53.6145 72.5626 53.6347C72.5183 53.6549 72.4707 53.6656 72.4225 53.6662H70.8808V54.9636H72.6739C72.7712 54.9636 72.8646 55.0047 72.9334 55.0778C73.0023 55.1509 73.0409 55.2501 73.0409 55.3535C73.0409 55.4569 73.0023 55.5561 72.9334 55.6293C72.8646 55.7024 72.7712 55.7435 72.6739 55.7435H70.5315C70.5182 55.7435 70.5182 55.7435 70.5182 55.7435C70.4702 55.7438 70.4226 55.734 70.3782 55.7146C70.3338 55.6952 70.2934 55.6667 70.2595 55.6306C70.2256 55.5946 70.1987 55.5517 70.1805 55.5046C70.1622 55.4574 70.153 55.4069 70.1533 55.3559" fill="white"/>
<path d="M75.8284 53.8078L75.2922 52.293L74.7583 53.8078H75.8284ZM76.0998 54.583H74.4936L74.1688 55.4976C74.1398 55.5688 74.0915 55.6292 74.0301 55.6713C73.9687 55.7133 73.897 55.7351 73.824 55.7339C73.7816 55.7341 73.7395 55.7269 73.6994 55.7126C73.6071 55.6764 73.532 55.603 73.4903 55.5083C73.4487 55.4136 73.4439 55.3053 73.4769 55.2069L74.9385 51.057C74.9676 50.9839 75.0164 50.9215 75.0787 50.8776C75.141 50.8337 75.2141 50.8103 75.2889 50.8103C75.3637 50.8103 75.4368 50.8337 75.4991 50.8776C75.5614 50.9215 75.6102 50.9839 75.6393 51.057L77.1009 55.2069C77.134 55.3053 77.1291 55.4136 77.0875 55.5083C77.0458 55.603 76.9707 55.6764 76.8784 55.7126C76.8377 55.7277 76.7948 55.7349 76.7516 55.7339C76.6796 55.7358 76.6087 55.7142 76.5486 55.6719C76.4886 55.6297 76.4422 55.5688 76.4157 55.4976L76.0998 54.583Z" fill="white"/>
<path d="M79.8174 52.3286C79.8183 52.233 79.8013 52.138 79.7675 52.0493C79.7337 51.9607 79.6838 51.8799 79.6205 51.8119C79.5572 51.7438 79.4819 51.6896 79.3989 51.6526C79.3158 51.6156 79.2267 51.5963 79.1366 51.596H78.3224V53.047H79.1366C79.3149 53.0471 79.486 52.9728 79.6133 52.8403C79.7406 52.7077 79.8139 52.5274 79.8174 52.3381M80.7428 55.174C80.7743 55.2708 80.7686 55.3769 80.727 55.4694C80.6853 55.5618 80.6111 55.6331 80.5204 55.6679C80.4731 55.6805 80.4245 55.6868 80.3758 55.6868C80.2847 55.6884 80.1951 55.6622 80.1177 55.6112C80.0287 55.5487 79.956 55.4634 79.9064 55.363C79.7989 55.0971 79.7509 54.8083 79.7662 54.5193C79.7656 54.413 79.7388 54.3087 79.6884 54.2168C79.6372 54.133 79.5687 54.0627 79.4881 54.0112C79.3742 53.9349 79.2495 53.8783 79.1188 53.8435H78.338V55.3701C78.3377 55.4213 78.3279 55.472 78.3092 55.5192C78.2905 55.5663 78.2632 55.6092 78.2289 55.6451C78.1946 55.6811 78.154 55.7096 78.1093 55.7289C78.0647 55.7482 78.0169 55.758 77.9687 55.7577C77.9207 55.758 77.8731 55.7482 77.8287 55.7288C77.7843 55.7094 77.744 55.6809 77.71 55.6449C77.6761 55.6088 77.6492 55.566 77.631 55.5188C77.6128 55.4716 77.6035 55.4211 77.6038 55.3701V51.2014C77.6029 51.1502 77.6117 51.0994 77.6298 51.0519C77.6478 51.0045 77.6746 50.9613 77.7087 50.9252C77.7427 50.889 77.7833 50.8605 77.828 50.8413C77.8727 50.8222 77.9205 50.8128 77.9687 50.8138H79.1522C79.4433 50.8168 79.7265 50.9147 79.9633 51.0944C80.2002 51.2741 80.3794 51.5268 80.4765 51.8183C80.5737 52.1098 80.5841 52.426 80.5064 52.724C80.4287 53.022 80.2666 53.2874 80.0421 53.4842C80.1301 53.5562 80.2055 53.6442 80.2645 53.7442C80.4104 53.9676 80.4881 54.2333 80.487 54.5052C80.4805 54.6444 80.4895 54.784 80.5137 54.9211C80.5654 54.9396 80.6124 54.9705 80.651 55.0115C80.6896 55.0525 80.7188 55.1025 80.7362 55.1574" fill="white"/>
<path d="M81.4836 55.3559V51.2013C81.4834 51.1503 81.4926 51.0998 81.5108 51.0526C81.5291 51.0054 81.5559 50.9626 81.5899 50.9265C81.6238 50.8905 81.6641 50.862 81.7085 50.8426C81.7529 50.8232 81.8005 50.8134 81.8485 50.8137C81.8967 50.8134 81.9445 50.8232 81.9891 50.8425C82.0338 50.8618 82.0744 50.8903 82.1087 50.9263C82.143 50.9623 82.1703 51.0051 82.189 51.0523C82.2077 51.0994 82.2175 51.1501 82.2178 51.2013V54.9636H84.0109C84.1082 54.9636 84.2016 55.0047 84.2705 55.0778C84.3393 55.1509 84.378 55.2501 84.378 55.3535C84.378 55.4569 84.3393 55.5561 84.2705 55.6292C84.2016 55.7024 84.1082 55.7434 84.0109 55.7434H81.8485C81.8005 55.7438 81.7529 55.7339 81.7085 55.7146C81.6641 55.6952 81.6238 55.6667 81.5899 55.6306C81.5559 55.5946 81.5291 55.5517 81.5108 55.5046C81.4926 55.4574 81.4834 55.4069 81.4836 55.3559" fill="white"/>
<path d="M87.2389 51.4753L85.8818 53.4557V55.3463C85.8827 55.3972 85.874 55.4479 85.8561 55.4952C85.8382 55.5425 85.8116 55.5855 85.7778 55.6216C85.7439 55.6578 85.7036 55.6863 85.6592 55.7056C85.6148 55.7249 85.5672 55.7345 85.5192 55.7339C85.423 55.7326 85.3311 55.6913 85.2633 55.6188C85.1955 55.5463 85.1572 55.4485 85.1566 55.3463V53.4557L83.8218 51.4753C83.7919 51.4356 83.77 51.3898 83.7575 51.3408C83.7449 51.2917 83.742 51.2404 83.7489 51.1901C83.7558 51.1398 83.7723 51.0916 83.7975 51.0484C83.8226 51.0051 83.8559 50.9679 83.8952 50.9388C83.9332 50.9085 83.9765 50.8866 84.0226 50.8744C84.0687 50.8622 84.1167 50.86 84.1636 50.868C84.2105 50.8759 84.2555 50.8938 84.2957 50.9206C84.336 50.9474 84.3708 50.9825 84.398 51.0239L85.5281 52.6782L86.6582 51.0239C86.7152 50.9409 86.8009 50.8853 86.8964 50.8694C86.9919 50.8534 87.0895 50.8784 87.1677 50.9388C87.2436 51 87.2944 51.09 87.3093 51.19C87.3242 51.2899 87.3022 51.3922 87.2478 51.4753" fill="white"/>
<path d="M89.1299 53.2077C89.1415 52.5312 89.4025 51.8867 89.8568 51.4125C90.3111 50.9383 90.9224 50.6724 91.5592 50.6719C92.1116 50.669 92.649 50.8628 93.0854 51.2225C93.1614 51.29 93.2105 51.3855 93.2229 51.4898C93.2353 51.5942 93.21 51.6997 93.1521 51.785C93.0906 51.8683 93.001 51.923 92.9022 51.9376C92.8034 51.9521 92.7032 51.9254 92.6226 51.863C92.3219 51.6054 91.9455 51.4682 91.5592 51.4754C91.1176 51.4799 90.6936 51.6603 90.3713 51.9811C90.0644 52.3064 89.8909 52.7472 89.8885 53.2077C89.888 53.436 89.9304 53.6621 90.0133 53.8727C90.0962 54.0833 90.2179 54.2742 90.3713 54.4342C90.6939 54.7577 91.12 54.9393 91.5637 54.9423C91.9498 54.9482 92.3258 54.8112 92.6271 54.5547C92.7086 54.4959 92.8077 54.4711 92.9054 54.485C93.0031 54.499 93.0925 54.5507 93.1566 54.6303C93.2146 54.716 93.24 54.8219 93.2276 54.9267C93.2152 55.0314 93.166 55.1273 93.0898 55.1951C92.6532 55.5542 92.1158 55.7472 91.5637 55.7434C90.9263 55.7447 90.314 55.4794 89.8594 55.0049C89.4047 54.5303 89.1443 53.8847 89.1343 53.2077" fill="white"/>
<path d="M94.1043 55.3559V51.2014C94.1037 51.1503 94.1127 51.0996 94.1308 51.0523C94.149 51.005 94.1758 50.962 94.2098 50.9259C94.2438 50.8898 94.2843 50.8612 94.3288 50.842C94.3733 50.8227 94.421 50.8132 94.4691 50.8138C94.5175 50.8128 94.5655 50.8222 94.6105 50.8413C94.6554 50.8603 94.6962 50.8888 94.7307 50.9249C94.7651 50.961 94.7923 51.0041 94.8108 51.0516C94.8294 51.099 94.8387 51.15 94.8384 51.2014V52.8911H96.5514V51.2014C96.5508 51.1503 96.5599 51.0996 96.578 51.0523C96.5961 51.005 96.623 50.962 96.657 50.9259C96.691 50.8898 96.7314 50.8612 96.776 50.842C96.8205 50.8227 96.8682 50.8132 96.9163 50.8138C96.9646 50.8128 97.0127 50.8222 97.0576 50.8413C97.1025 50.8603 97.1434 50.8888 97.1778 50.9249C97.2122 50.961 97.2395 51.0041 97.258 51.0516C97.2765 51.099 97.2859 51.15 97.2856 51.2014V55.3559C97.2859 55.4073 97.2765 55.4582 97.258 55.5057C97.2395 55.5532 97.2122 55.5963 97.1778 55.6324C97.1434 55.6685 97.1025 55.6969 97.0576 55.716C97.0127 55.7351 96.9646 55.7444 96.9163 55.7435C96.8682 55.7441 96.8205 55.7345 96.776 55.7153C96.7314 55.696 96.691 55.6675 96.657 55.6314C96.623 55.5953 96.5961 55.5523 96.578 55.505C96.5599 55.4577 96.5508 55.407 96.5514 55.3559V53.6662H94.8384V55.3559C94.8387 55.4073 94.8294 55.4582 94.8108 55.5057C94.7923 55.5532 94.7651 55.5963 94.7307 55.6324C94.6962 55.6685 94.6554 55.6969 94.6105 55.716C94.5655 55.7351 94.5175 55.7444 94.4691 55.7435C94.421 55.7441 94.3733 55.7345 94.3288 55.7153C94.2843 55.696 94.2438 55.6675 94.2098 55.6314C94.1758 55.5953 94.149 55.5523 94.1308 55.505C94.1127 55.4577 94.1037 55.407 94.1043 55.3559" fill="white"/>
<path d="M98.1799 51.2013C98.179 51.1504 98.1877 51.0997 98.2056 51.0524C98.2235 51.0051 98.2501 50.9621 98.2839 50.926C98.3178 50.8898 98.3581 50.8613 98.4025 50.842C98.4469 50.8227 98.4945 50.8131 98.5425 50.8138C98.6401 50.8131 98.7339 50.8535 98.8035 50.9261C98.8731 50.9988 98.9128 51.0977 98.914 51.2013V55.3559C98.9128 55.4595 98.8731 55.5585 98.8035 55.6311C98.7339 55.7037 98.6401 55.7441 98.5425 55.7435C98.4945 55.7441 98.4469 55.7345 98.4025 55.7152C98.3581 55.6959 98.3178 55.6674 98.2839 55.6312C98.2501 55.5951 98.2235 55.5521 98.2056 55.5048C98.1877 55.4575 98.179 55.4068 98.1799 55.3559V51.2013Z" fill="white"/>
<path d="M99.8195 55.3559V51.2013C99.8192 51.1503 99.8284 51.0998 99.8466 51.0526C99.8649 51.0054 99.8917 50.9626 99.9257 50.9265C99.9596 50.8905 99.9999 50.862 100.044 50.8426C100.089 50.8232 100.136 50.8134 100.184 50.8137C100.233 50.8134 100.28 50.8232 100.325 50.8425C100.37 50.8618 100.41 50.8903 100.445 50.9263C100.479 50.9623 100.506 51.0051 100.525 51.0523C100.544 51.0994 100.553 51.1501 100.554 51.2013V54.9636H102.347C102.444 54.9636 102.537 55.0047 102.606 55.0778C102.675 55.1509 102.714 55.2501 102.714 55.3535C102.714 55.4569 102.675 55.5561 102.606 55.6292C102.537 55.7024 102.444 55.7434 102.347 55.7434H100.184C100.136 55.7438 100.089 55.7339 100.044 55.7146C99.9999 55.6952 99.9596 55.6667 99.9257 55.6306C99.8917 55.5946 99.8649 55.5517 99.8466 55.5046C99.8284 55.4574 99.8192 55.4069 99.8195 55.3559" fill="white"/>
<path d="M103.942 54.9636H104.353C104.763 54.9473 105.152 54.7627 105.436 54.4487C105.721 54.1347 105.88 53.7157 105.88 53.2798C105.88 52.8438 105.721 52.4248 105.436 52.1108C105.152 51.7968 104.763 51.6123 104.353 51.596H103.942V54.9636ZM103.208 55.3559V51.2013C103.207 51.1502 103.216 51.0996 103.234 51.0523C103.252 51.0049 103.279 50.962 103.313 50.9259C103.347 50.8897 103.388 50.8612 103.432 50.842C103.477 50.8227 103.524 50.8131 103.573 50.8138H104.353C104.969 50.8138 105.559 51.0734 105.994 51.5357C106.429 51.9979 106.674 52.6249 106.674 53.2786C106.674 53.9323 106.429 54.5593 105.994 55.0215C105.559 55.4838 104.969 55.7435 104.353 55.7435H103.573C103.525 55.7438 103.477 55.734 103.433 55.7146C103.388 55.6952 103.348 55.6667 103.314 55.6306C103.28 55.5946 103.253 55.5517 103.235 55.5046C103.217 55.4574 103.207 55.4069 103.208 55.3559" fill="white"/>
<path d="M107.308 55.3559V51.2014C107.307 51.1504 107.316 51.0998 107.333 51.0525C107.351 51.0052 107.378 50.9622 107.412 50.926C107.446 50.8899 107.486 50.8613 107.53 50.842C107.575 50.8227 107.622 50.8131 107.67 50.8138C107.719 50.8128 107.767 50.8222 107.812 50.8412C107.857 50.8603 107.898 50.8887 107.933 50.9248C107.967 50.9608 107.995 51.0039 108.013 51.0514C108.032 51.0989 108.042 51.1499 108.042 51.2014V52.8911H109.755V51.2014C109.754 51.1504 109.763 51.0998 109.781 51.0525C109.798 51.0052 109.825 50.9622 109.859 50.926C109.893 50.8899 109.933 50.8613 109.977 50.842C110.022 50.8227 110.069 50.8131 110.117 50.8138C110.166 50.8128 110.214 50.8222 110.259 50.8412C110.304 50.8603 110.345 50.8887 110.38 50.9248C110.414 50.9608 110.442 51.0039 110.461 51.0514C110.479 51.0989 110.489 51.1499 110.489 51.2014V55.3559C110.489 55.4074 110.479 55.4584 110.461 55.5059C110.442 55.5534 110.414 55.5964 110.38 55.6325C110.345 55.6686 110.304 55.697 110.259 55.7161C110.214 55.7351 110.166 55.7444 110.117 55.7435C110.069 55.7441 110.022 55.7345 109.977 55.7153C109.933 55.696 109.893 55.6674 109.859 55.6313C109.825 55.5951 109.798 55.5521 109.781 55.5048C109.763 55.4575 109.754 55.4069 109.755 55.3559V53.6662H108.042V55.3559C108.042 55.4074 108.032 55.4584 108.013 55.5059C107.995 55.5534 107.967 55.5964 107.933 55.6325C107.898 55.6686 107.857 55.697 107.812 55.7161C107.767 55.7351 107.719 55.7444 107.67 55.7435C107.622 55.7441 107.575 55.7345 107.53 55.7153C107.486 55.696 107.446 55.6674 107.412 55.6313C107.378 55.5951 107.351 55.5521 107.333 55.5048C107.316 55.4575 107.307 55.4069 107.308 55.3559Z" fill="white"/>
<path d="M115.032 53.2076C115.033 52.7526 114.875 52.3135 114.587 51.9764C114.455 51.8207 114.294 51.6958 114.115 51.6096C113.935 51.5233 113.741 51.4776 113.543 51.4754C113.342 51.4744 113.142 51.5184 112.957 51.6048C112.772 51.6911 112.607 51.8177 112.471 51.9764C112.181 52.3118 112.022 52.752 112.026 53.2076C112.02 53.6621 112.18 54.1015 112.471 54.4341C112.607 54.5938 112.772 54.7215 112.957 54.809C113.141 54.8965 113.341 54.9419 113.543 54.9422C113.741 54.9385 113.936 54.8915 114.115 54.804C114.295 54.7166 114.455 54.5907 114.587 54.4341C114.876 54.0998 115.035 53.6615 115.032 53.2076M115.119 51.4257C115.546 51.908 115.784 52.5453 115.784 53.2076C115.784 53.8699 115.546 54.5073 115.119 54.9895C114.918 55.2241 114.675 55.4122 114.403 55.5419C114.131 55.6717 113.837 55.7403 113.539 55.7434C113.235 55.7423 112.933 55.6749 112.655 55.5452C112.376 55.4155 112.125 55.2264 111.917 54.9895C111.497 54.5036 111.263 53.8677 111.263 53.2076C111.263 52.5476 111.497 51.9116 111.917 51.4257C112.124 51.1879 112.375 50.9981 112.654 50.8683C112.933 50.7385 113.234 50.6717 113.539 50.6719C113.837 50.6734 114.132 50.7413 114.404 50.8711C114.676 51.001 114.919 51.1899 115.119 51.4257" fill="white"/>
<path d="M120.258 53.2076C120.259 52.7526 120.1 52.3135 119.813 51.9764C119.679 51.8186 119.516 51.6925 119.334 51.6061C119.152 51.5197 118.954 51.4751 118.755 51.4751C118.555 51.4751 118.358 51.5197 118.176 51.6061C117.993 51.6925 117.83 51.8186 117.697 51.9764C117.407 52.3118 117.248 52.752 117.252 53.2076C117.246 53.6621 117.405 54.1015 117.697 54.4341C117.829 54.5939 117.992 54.7219 118.174 54.8096C118.357 54.8973 118.555 54.9426 118.755 54.9426C118.955 54.9426 119.153 54.8973 119.335 54.8096C119.518 54.7219 119.681 54.5939 119.813 54.4341C120.102 54.0998 120.261 53.6615 120.258 53.2076M120.344 51.4257C120.772 51.908 121.01 52.5453 121.01 53.2076C121.01 53.8699 120.772 54.5073 120.344 54.9895C120.144 55.2244 119.9 55.4126 119.628 55.5424C119.356 55.6721 119.061 55.7406 118.763 55.7434C118.459 55.742 118.158 55.6744 117.879 55.5447C117.601 55.415 117.35 55.2261 117.143 54.9895C116.723 54.5036 116.489 53.8677 116.489 53.2076C116.489 52.5476 116.723 51.9116 117.143 51.4257C117.349 51.1879 117.6 50.9981 117.878 50.8684C118.157 50.7386 118.458 50.6717 118.763 50.6719C119.061 50.6731 119.356 50.7408 119.629 50.8706C119.901 51.0005 120.145 51.1896 120.344 51.4257" fill="white"/>
<path d="M122.52 54.9636H122.932C123.342 54.9473 123.73 54.7627 124.015 54.4487C124.299 54.1347 124.459 53.7157 124.459 53.2798C124.459 52.8438 124.299 52.4248 124.015 52.1108C123.73 51.7968 123.342 51.6123 122.932 51.596H122.52V54.9636ZM121.786 55.3559V51.2013C121.785 51.1502 121.794 51.0996 121.813 51.0523C121.831 51.0049 121.858 50.962 121.892 50.9259C121.926 50.8897 121.966 50.8612 122.011 50.842C122.055 50.8227 122.103 50.8131 122.151 50.8138H122.932C123.547 50.8138 124.137 51.0734 124.572 51.5357C125.008 51.9979 125.252 52.6249 125.252 53.2786C125.252 53.9323 125.008 54.5593 124.572 55.0215C124.137 55.4838 123.547 55.7435 122.932 55.7435H122.151C122.103 55.7438 122.055 55.734 122.011 55.7146C121.967 55.6952 121.926 55.6667 121.892 55.6306C121.858 55.5946 121.831 55.5517 121.813 55.5046C121.795 55.4574 121.786 55.4069 121.786 55.3559" fill="white"/>
<path d="M128.598 54.9636H129.01C129.42 54.9473 129.808 54.7627 130.093 54.4487C130.377 54.1347 130.536 53.7157 130.536 53.2798C130.536 52.8438 130.377 52.4248 130.093 52.1108C129.808 51.7969 129.42 51.6123 129.01 51.596H128.598V54.9636ZM127.866 55.3559V51.2013C127.865 51.1504 127.874 51.0997 127.892 51.0524C127.91 51.0051 127.936 50.9621 127.97 50.926C128.004 50.8898 128.044 50.8613 128.089 50.842C128.133 50.8227 128.181 50.8131 128.229 50.8138H129.01C129.625 50.8138 130.215 51.0734 130.65 51.5357C131.085 51.9979 131.33 52.6249 131.33 53.2786C131.33 53.9323 131.085 54.5593 130.65 55.0215C130.215 55.4838 129.625 55.7435 129.01 55.7435H128.229C128.181 55.7435 128.134 55.7334 128.089 55.7139C128.045 55.6944 128.005 55.6658 127.971 55.6298C127.938 55.5938 127.911 55.551 127.893 55.504C127.875 55.457 127.866 55.4067 127.866 55.3559" fill="white"/>
<path d="M131.96 55.3559V51.2013C131.959 51.1502 131.968 51.0996 131.986 51.0523C132.004 51.0049 132.031 50.962 132.065 50.9259C132.099 50.8897 132.139 50.8612 132.184 50.842C132.229 50.8227 132.276 50.8131 132.324 50.8138H134.487C134.583 50.815 134.675 50.8563 134.743 50.9288C134.81 51.0013 134.849 51.0991 134.849 51.2013C134.849 51.3042 134.811 51.4028 134.743 51.4764C134.675 51.5501 134.584 51.5929 134.487 51.596H132.694V52.8839H134.235C134.331 52.8864 134.422 52.9281 134.49 53.0003C134.558 53.0725 134.596 53.1697 134.598 53.2715C134.599 53.3227 134.59 53.3736 134.572 53.4211C134.554 53.4687 134.527 53.512 134.494 53.5486C134.46 53.5853 134.42 53.6145 134.375 53.6347C134.331 53.6549 134.284 53.6656 134.235 53.6662H132.694V54.9636H134.487C134.584 54.9636 134.677 55.0047 134.746 55.0778C134.815 55.1509 134.854 55.2501 134.854 55.3535C134.854 55.4569 134.815 55.5561 134.746 55.6293C134.677 55.7024 134.584 55.7435 134.487 55.7435H132.344C132.331 55.7435 132.331 55.7435 132.331 55.7435C132.283 55.7438 132.235 55.734 132.191 55.7146C132.147 55.6952 132.106 55.6667 132.072 55.6306C132.038 55.5946 132.012 55.5517 131.993 55.5046C131.975 55.4574 131.966 55.4069 131.966 55.3559" fill="white"/>
<path d="M137.058 55.6725L137.014 55.6395C137.014 55.6395 137.014 55.6395 137.014 55.6182C137.001 55.6058 136.99 55.5915 136.981 55.5757C136.972 55.5552 136.961 55.5362 136.947 55.5189L135.31 51.3975C135.291 51.3509 135.281 51.3007 135.281 51.25C135.281 51.1993 135.29 51.1491 135.309 51.1024C135.328 51.0557 135.355 51.0136 135.39 50.9786C135.424 50.9436 135.465 50.9165 135.51 50.8988C135.553 50.8791 135.6 50.8686 135.647 50.8682C135.694 50.8677 135.741 50.8772 135.785 50.8961C135.828 50.915 135.868 50.943 135.902 50.9783C135.935 51.0137 135.961 51.0557 135.979 51.102L137.27 54.3633L138.558 51.102C138.596 51.0084 138.667 50.9346 138.757 50.8965C138.846 50.8585 138.945 50.8593 139.034 50.8988C139.122 50.9371 139.193 51.0111 139.23 51.1046C139.267 51.1981 139.268 51.3034 139.232 51.3975L137.599 55.5118C137.593 55.5321 137.584 55.5512 137.572 55.5686C137.572 55.5686 137.572 55.5686 137.572 55.5686C137.572 55.5686 137.546 55.5969 137.539 55.6111V55.6324C137.526 55.6441 137.513 55.6552 137.499 55.6655H137.486C137.469 55.678 137.451 55.6891 137.432 55.6985C137.432 55.6985 137.432 55.6985 137.419 55.6985C137.4 55.6999 137.382 55.7047 137.365 55.7127H137.352C137.331 55.7159 137.309 55.7159 137.288 55.7127C137.265 55.7163 137.243 55.7163 137.221 55.7127H137.207C137.191 55.7047 137.172 55.6999 137.154 55.6985L137.094 55.656L137.058 55.6725Z" fill="white"/>
<path d="M139.982 55.3559V51.2013C139.981 51.1502 139.99 51.0996 140.008 51.0523C140.026 51.0049 140.053 50.962 140.087 50.9259C140.121 50.8897 140.162 50.8612 140.206 50.842C140.251 50.8227 140.298 50.8131 140.347 50.8138H142.509C142.606 50.8144 142.698 50.8554 142.766 50.928C142.835 51.0005 142.873 51.0987 142.874 51.2013C142.873 51.3044 142.834 51.4031 142.766 51.4766C142.698 51.5502 142.606 51.5929 142.509 51.596H140.716V52.8839H142.258C142.354 52.8863 142.445 52.9279 142.513 53.0001C142.581 53.0723 142.62 53.1695 142.622 53.2715C142.623 53.3752 142.585 53.4748 142.517 53.5488C142.448 53.6227 142.355 53.6649 142.258 53.6662H140.716V54.9636H142.509C142.606 54.9636 142.7 55.0047 142.769 55.0778C142.837 55.1509 142.876 55.2501 142.876 55.3535C142.876 55.4569 142.837 55.5561 142.769 55.6293C142.7 55.7024 142.606 55.7435 142.509 55.7435H140.367C140.353 55.7435 140.353 55.7435 140.353 55.7435C140.305 55.7438 140.258 55.734 140.213 55.7146C140.169 55.6952 140.129 55.6667 140.095 55.6306C140.061 55.5946 140.034 55.5517 140.016 55.5046C139.997 55.4574 139.988 55.4069 139.988 55.3559" fill="white"/>
<path d="M143.575 55.3559V51.2013C143.574 51.1505 143.583 51.1002 143.602 51.0532C143.62 51.0062 143.646 50.9634 143.68 50.9274C143.714 50.8914 143.754 50.8628 143.798 50.8433C143.842 50.8238 143.889 50.8137 143.937 50.8137C143.986 50.8131 144.034 50.8227 144.079 50.8418C144.123 50.861 144.164 50.8894 144.199 50.9254C144.233 50.9615 144.261 51.0044 144.28 51.0517C144.299 51.0991 144.308 51.1499 144.309 51.2013V54.9636H146.102C146.199 54.9636 146.293 55.0047 146.361 55.0778C146.43 55.1509 146.469 55.2501 146.469 55.3535C146.469 55.4569 146.43 55.5561 146.361 55.6292C146.293 55.7024 146.199 55.7435 146.102 55.7435H143.937C143.889 55.7435 143.842 55.7334 143.798 55.7139C143.754 55.6944 143.714 55.6658 143.68 55.6298C143.646 55.5938 143.62 55.551 143.602 55.504C143.583 55.457 143.574 55.4067 143.575 55.3559" fill="white"/>
<path d="M150.269 53.2076C150.269 52.7528 150.11 52.3141 149.824 51.9764C149.69 51.8186 149.527 51.6924 149.344 51.606C149.162 51.5196 148.964 51.4749 148.765 51.4749C148.565 51.4749 148.367 51.5196 148.185 51.606C148.003 51.6924 147.839 51.8186 147.706 51.9764C147.415 52.3118 147.256 52.752 147.261 53.2076C147.255 53.6621 147.414 54.1015 147.706 54.4341C147.838 54.594 148.001 54.722 148.184 54.8097C148.366 54.8974 148.564 54.9428 148.765 54.9428C148.965 54.9428 149.163 54.8974 149.346 54.8097C149.528 54.722 149.691 54.594 149.824 54.4341C150.112 54.0992 150.271 53.6613 150.269 53.2076M150.353 51.4257C150.783 51.9066 151.023 52.5445 151.023 53.2076C151.023 53.8708 150.783 54.5086 150.353 54.9895C150.153 55.2241 149.909 55.4122 149.638 55.5419C149.366 55.6717 149.072 55.7403 148.774 55.7434C148.469 55.742 148.169 55.6744 147.89 55.5447C147.612 55.415 147.361 55.2261 147.154 54.9895C146.732 54.5044 146.498 53.8681 146.498 53.2076C146.498 52.5471 146.732 51.9109 147.154 51.4257C147.36 51.1879 147.611 50.9981 147.889 50.8684C148.168 50.7386 148.469 50.6717 148.774 50.6719C149.072 50.6734 149.366 50.7413 149.639 50.8711C149.911 51.001 150.154 51.1899 150.353 51.4257" fill="white"/>
<path d="M152.44 53.047H153.254C153.435 53.047 153.609 52.9705 153.737 52.8345C153.865 52.6984 153.937 52.5139 153.937 52.3215C153.937 52.1291 153.865 51.9445 153.737 51.8085C153.609 51.6724 153.435 51.596 153.254 51.596H152.44V53.047ZM153.254 53.8292H152.44V55.3559C152.44 55.4593 152.401 55.5585 152.332 55.6316C152.264 55.7047 152.17 55.7458 152.073 55.7458C151.976 55.7458 151.882 55.7047 151.813 55.6316C151.744 55.5585 151.706 55.4593 151.706 55.3559V51.2013C151.706 51.1503 151.715 51.0998 151.733 51.0526C151.751 51.0054 151.778 50.9626 151.812 50.9265C151.846 50.8905 151.886 50.862 151.931 50.8426C151.975 50.8232 152.023 50.8134 152.071 50.8137H153.254C153.631 50.8137 153.992 50.9726 154.258 51.2553C154.524 51.5381 154.674 51.9216 154.674 52.3215C154.674 52.7214 154.524 53.1049 154.258 53.3876C153.992 53.6704 153.631 53.8292 153.254 53.8292" fill="white"/>
<path d="M159.212 51.2013V55.3559C159.21 55.4591 159.17 55.5573 159.1 55.6297C159.031 55.702 158.938 55.7428 158.84 55.7434C158.792 55.7437 158.745 55.7339 158.7 55.7146C158.656 55.6952 158.616 55.6667 158.582 55.6306C158.548 55.5946 158.521 55.5517 158.503 55.5045C158.484 55.4574 158.475 55.4068 158.476 55.3559V52.3924L157.523 53.8103C157.49 53.8603 157.445 53.9011 157.394 53.929C157.342 53.957 157.285 53.9714 157.227 53.971H157.214C157.155 53.9716 157.097 53.9573 157.044 53.9294C156.991 53.9015 156.945 53.8607 156.909 53.8103L155.964 52.3924V55.3559C155.964 55.4593 155.925 55.5585 155.856 55.6316C155.788 55.7047 155.694 55.7458 155.597 55.7458C155.499 55.7458 155.406 55.7047 155.337 55.6316C155.268 55.5585 155.23 55.4593 155.23 55.3559V51.2013C155.23 51.0991 155.269 51.0012 155.336 50.9287C155.404 50.8563 155.496 50.815 155.592 50.8137H155.612C155.669 50.8141 155.726 50.8288 155.776 50.8568C155.827 50.8847 155.871 50.925 155.904 50.9744L157.221 52.9194L158.536 50.9744C158.57 50.9245 158.615 50.8839 158.666 50.8559C158.718 50.828 158.776 50.8135 158.834 50.8137V50.8137C158.931 50.8155 159.023 50.8567 159.092 50.9288C159.161 51.0009 159.202 51.0984 159.205 51.2013" fill="white"/>
<path d="M160.151 55.3559V51.2013C160.15 51.1504 160.159 51.0997 160.176 51.0524C160.194 51.0051 160.221 50.9621 160.255 50.926C160.289 50.8898 160.329 50.8613 160.373 50.842C160.418 50.8227 160.465 50.8131 160.513 50.8138H162.673C162.77 50.815 162.862 50.8563 162.929 50.9288C162.997 51.0013 163.036 51.0991 163.036 51.2013C163.036 51.3042 162.997 51.4028 162.93 51.4764C162.862 51.5501 162.77 51.5929 162.673 51.596H160.894V52.8839H162.435C162.531 52.8864 162.623 52.9281 162.69 53.0003C162.758 53.0725 162.796 53.1697 162.798 53.2715C162.799 53.3227 162.79 53.3736 162.772 53.4211C162.754 53.4687 162.727 53.512 162.694 53.5486C162.66 53.5853 162.62 53.6145 162.576 53.6347C162.531 53.6549 162.484 53.6656 162.435 53.6662H160.894V54.9636H162.673C162.771 54.9636 162.864 55.0047 162.933 55.0778C163.002 55.1509 163.041 55.2501 163.041 55.3535C163.041 55.4569 163.002 55.5561 162.933 55.6293C162.864 55.7024 162.771 55.7435 162.673 55.7435H160.529C160.516 55.7435 160.516 55.7435 160.516 55.7435C160.468 55.7435 160.42 55.7334 160.376 55.7139C160.332 55.6944 160.292 55.6658 160.258 55.6298C160.225 55.5938 160.198 55.551 160.18 55.504C160.162 55.457 160.153 55.4067 160.153 55.3559" fill="white"/>
<path d="M164.469 55.3558C164.469 55.4574 164.431 55.5547 164.363 55.6265C164.296 55.6983 164.204 55.7387 164.108 55.7387C164.013 55.7387 163.921 55.6983 163.854 55.6265C163.786 55.5547 163.748 55.4574 163.748 55.3558V51.258C163.745 51.1953 163.757 51.1328 163.783 51.0762C163.808 51.0197 163.847 50.9709 163.895 50.9342C163.972 50.8757 164.068 50.8517 164.162 50.8671C164.256 50.8826 164.34 50.9363 164.398 51.0169L166.533 54.1671V51.2722C166.534 51.1714 166.572 51.075 166.639 51.0038C166.706 50.9326 166.797 50.8923 166.891 50.8917C166.987 50.8923 167.078 50.9324 167.146 51.0035C167.213 51.0746 167.252 51.171 167.254 51.2722V55.3629C167.254 55.4651 167.215 55.563 167.147 55.6355C167.08 55.7079 166.988 55.7492 166.891 55.7505C166.839 55.7498 166.788 55.7369 166.741 55.7128C166.694 55.6887 166.653 55.654 166.62 55.6111C166.607 55.5987 166.596 55.5844 166.587 55.5685L164.469 52.4396V55.3558Z" fill="white"/>
<path d="M171.276 51.596H170.224V55.3583C170.225 55.409 170.216 55.4594 170.198 55.5064C170.18 55.5534 170.153 55.5962 170.119 55.6321C170.085 55.6679 170.045 55.6963 170.001 55.7154C169.957 55.7346 169.909 55.7441 169.861 55.7435C169.814 55.7438 169.766 55.734 169.722 55.7148C169.678 55.6956 169.637 55.6673 169.604 55.6315C169.57 55.5957 169.543 55.5531 169.524 55.5062C169.506 55.4593 169.497 55.409 169.497 55.3583V51.596H168.458C168.36 51.5941 168.268 51.5516 168.2 51.4778C168.132 51.4039 168.094 51.3046 168.095 51.2013C168.094 51.1504 168.103 51.0997 168.121 51.0524C168.139 51.0051 168.165 50.9621 168.199 50.926C168.233 50.8898 168.273 50.8613 168.318 50.842C168.362 50.8227 168.41 50.8131 168.458 50.8138H171.283C171.331 50.8137 171.378 50.8238 171.422 50.8433C171.466 50.8628 171.507 50.8914 171.54 50.9274C171.574 50.9634 171.601 51.0062 171.619 51.0532C171.637 51.1002 171.646 51.1505 171.646 51.2013C171.645 51.3042 171.607 51.4028 171.539 51.4764C171.472 51.5501 171.38 51.5929 171.283 51.596" fill="white"/>
<path d="M58.8764 24.896H57.8241V28.6559C57.8265 28.708 57.8189 28.76 57.8018 28.8088C57.7846 28.8576 57.7582 28.9022 57.7243 28.9398C57.6903 28.9774 57.6495 29.0073 57.6043 29.0276C57.5592 29.0478 57.5105 29.0581 57.4615 29.0577C57.4134 29.0577 57.3658 29.0476 57.3214 29.028C57.2769 29.0083 57.2366 28.9796 57.2027 28.9433C57.1688 28.9071 57.142 28.8641 57.1238 28.8168C57.1056 28.7695 57.0963 28.7188 57.0966 28.6678V24.896H56.051C55.9539 24.8942 55.8613 24.8517 55.7934 24.7778C55.7255 24.7039 55.6878 24.6046 55.6884 24.5014C55.6875 24.4504 55.6963 24.3998 55.7141 24.3525C55.732 24.3052 55.7587 24.2622 55.7925 24.226C55.8263 24.1899 55.8666 24.1613 55.911 24.142C55.9555 24.1228 56.0031 24.1132 56.051 24.1138H58.8764C58.9242 24.1138 58.9715 24.1238 59.0157 24.1433C59.0598 24.1629 59.0999 24.1914 59.1336 24.2275C59.1673 24.2635 59.194 24.3062 59.2121 24.3532C59.2301 24.4002 59.2393 24.4506 59.239 24.5014C59.2385 24.6042 59.2004 24.7029 59.1327 24.7765C59.0651 24.8501 58.9732 24.893 58.8764 24.896" fill="white"/>
<path d="M59.9998 28.656V24.5014C59.9992 24.4503 60.0083 24.3997 60.0264 24.3523C60.0445 24.305 60.0714 24.2621 60.1053 24.2259C60.1393 24.1898 60.1798 24.1613 60.2243 24.142C60.2689 24.1228 60.3166 24.1132 60.3647 24.1138C60.413 24.1129 60.4611 24.1222 60.506 24.1413C60.5509 24.1604 60.5918 24.1888 60.6262 24.2249C60.6606 24.2611 60.6879 24.3041 60.7064 24.3516C60.7249 24.3991 60.7343 24.45 60.734 24.5014V26.1911H62.447V24.5014C62.4464 24.4503 62.4554 24.3997 62.4735 24.3523C62.4917 24.305 62.5185 24.2621 62.5525 24.2259C62.5865 24.1898 62.627 24.1613 62.6715 24.142C62.716 24.1228 62.7637 24.1132 62.8118 24.1138C62.8602 24.1129 62.9082 24.1222 62.9532 24.1413C62.9981 24.1604 63.0389 24.1888 63.0734 24.2249C63.1078 24.2611 63.135 24.3041 63.1535 24.3516C63.172 24.3991 63.1814 24.45 63.1811 24.5014V28.656C63.1829 28.7085 63.1747 28.7608 63.1569 28.8098C63.1391 28.8588 63.1121 28.9034 63.0776 28.941C63.043 28.9785 63.0017 29.0083 62.956 29.0283C62.9103 29.0484 62.8612 29.0584 62.8118 29.0577C62.7636 29.0584 62.7157 29.0487 62.671 29.0293C62.6263 29.0099 62.5857 28.9812 62.5517 28.9448C62.5177 28.9084 62.4909 28.8652 62.4729 28.8176C62.4549 28.77 62.4461 28.7191 62.447 28.6678V26.9663H60.734V28.656C60.7358 28.7085 60.7275 28.7608 60.7097 28.8098C60.6919 28.8588 60.6649 28.9034 60.6304 28.941C60.5959 28.9785 60.5545 29.0083 60.5088 29.0283C60.4631 29.0484 60.4141 29.0584 60.3647 29.0577C60.3164 29.0584 60.2685 29.0487 60.2238 29.0293C60.1791 29.0099 60.1386 28.9812 60.1045 28.9448C60.0705 28.9084 60.0437 28.8652 60.0257 28.8176C60.0077 28.77 59.9989 28.7191 59.9998 28.6678" fill="white"/>
<path d="M64.3579 28.6559V24.5014C64.3573 24.4503 64.3664 24.3996 64.3845 24.3523C64.4026 24.305 64.4295 24.262 64.4635 24.2259C64.4975 24.1898 64.5379 24.1613 64.5825 24.142C64.627 24.1228 64.6747 24.1132 64.7228 24.1138H66.8852C66.9818 24.1144 67.0742 24.1555 67.1425 24.228C67.2108 24.3006 67.2494 24.3988 67.25 24.5014C67.2489 24.6045 67.2103 24.7031 67.1423 24.7767C67.0743 24.8502 66.9822 24.893 66.8852 24.896H65.0943V26.184H66.6338C66.7265 26.1917 66.8131 26.2362 66.8762 26.3087C66.9394 26.3812 66.9744 26.4763 66.9744 26.5751C66.9744 26.6739 66.9394 26.769 66.8762 26.8415C66.8131 26.914 66.7265 26.9586 66.6338 26.9662H65.0943V28.2636H66.8852C66.9779 28.2713 67.0645 28.3158 67.1276 28.3883C67.1908 28.4608 67.2258 28.556 67.2258 28.6548C67.2258 28.7535 67.1908 28.8487 67.1276 28.9212C67.0645 28.9937 66.9779 29.0382 66.8852 29.0459H64.7428C64.7295 29.0459 64.7295 29.0459 64.7295 29.0459C64.6814 29.0459 64.6337 29.0358 64.5893 29.0161C64.5449 28.9965 64.5046 28.9678 64.4707 28.9315C64.4368 28.8953 64.4099 28.8523 64.3917 28.805C64.3735 28.7577 64.3643 28.707 64.3646 28.6559" fill="white"/>
<path d="M56.2467 39.9428C56.252 39.2793 56.3804 38.6235 56.6247 38.0128C56.8689 37.4021 57.2242 36.8487 57.6702 36.3841C58.1162 35.9196 58.6441 35.5531 59.2237 35.3057C59.8032 35.0582 60.423 34.9347 61.0476 34.9422C62.122 34.9399 63.1661 35.3202 64.0131 36.0222C64.0902 36.0858 64.1548 36.165 64.2031 36.2551C64.2515 36.3452 64.2826 36.4446 64.2948 36.5475C64.307 36.6504 64.3 36.7549 64.2742 36.8549C64.2484 36.955 64.2043 37.0486 64.1444 37.1306C64.0845 37.2125 64.01 37.2811 63.9251 37.3324C63.8403 37.3838 63.7467 37.4169 63.6499 37.4298C63.553 37.4428 63.4546 37.4353 63.3605 37.4079C63.2663 37.3805 63.1781 37.3336 63.101 37.27C62.5135 36.7857 61.7913 36.5223 61.0476 36.5209C60.6131 36.5132 60.1817 36.5988 59.7791 36.7726C59.3766 36.9464 59.0112 37.2048 58.705 37.5323C58.3974 37.8401 58.1523 38.2114 57.9848 38.6235C57.8173 39.0356 57.7309 39.4798 57.7309 39.9286C57.7309 40.3775 57.8173 40.8217 57.9848 41.2337C58.1523 41.6458 58.3974 42.0172 58.705 42.325C59.0112 42.6525 59.3766 42.9109 59.7791 43.0847C60.1817 43.2585 60.6131 43.3441 61.0476 43.3364C61.674 43.3292 62.2877 43.1475 62.8274 42.8094V40.9188H60.9675C60.7712 40.917 60.5834 40.8331 60.4448 40.6855C60.3062 40.5378 60.2279 40.3381 60.2267 40.1295C60.2267 40.0267 60.2459 39.925 60.2833 39.8301C60.3206 39.7353 60.3754 39.6493 60.4443 39.5772C60.5133 39.5051 60.595 39.4482 60.6849 39.41C60.7747 39.3717 60.8708 39.3528 60.9675 39.3544H63.5548C63.6525 39.3515 63.7498 39.3695 63.8409 39.4071C63.932 39.4447 64.0151 39.5013 64.0853 39.5735C64.1556 39.6457 64.2116 39.7321 64.25 39.8275C64.2884 39.923 64.3084 40.0257 64.309 40.1295V43.2017C64.3031 43.2815 64.2904 43.3606 64.2712 43.438C64.2578 43.4664 64.2578 43.4806 64.2445 43.5066V43.5208C64.1985 43.6574 64.1118 43.7744 63.9975 43.854C63.1546 44.554 62.1153 44.9342 61.0454 44.934C58.4047 44.934 56.2445 42.7314 56.2445 39.9712" fill="white"/>
<path d="M73.0787 39.9286C73.0778 39.0306 72.7603 38.1655 72.1888 37.5039C71.9292 37.1975 71.6123 36.9518 71.2584 36.7825C70.9045 36.6133 70.5213 36.5241 70.1332 36.5208C69.7368 36.5186 69.3444 36.605 68.9815 36.7744C68.6185 36.9437 68.2931 37.1923 68.0265 37.5039C67.4512 38.163 67.1331 39.0297 67.1366 39.9286C67.1295 40.8239 67.4483 41.6875 68.0265 42.3391C68.2925 42.6525 68.6174 42.9033 68.9803 43.075C69.3432 43.2468 69.736 43.3358 70.1332 43.3364C70.5222 43.3302 70.9057 43.2384 71.2595 43.0667C71.6133 42.8951 71.9298 42.6473 72.1888 42.3391C72.7623 41.6844 73.0804 40.8228 73.0787 39.9286M73.2411 36.4239C74.0839 37.3712 74.5535 38.6252 74.5535 39.9286C74.5535 41.232 74.0839 42.486 73.2411 43.4332C72.8462 43.895 72.3657 44.2651 71.8297 44.5201C71.2937 44.7751 70.7138 44.9095 70.1266 44.915C69.5285 44.9119 68.9374 44.7788 68.3895 44.524C67.8416 44.2691 67.3486 43.898 66.9408 43.4332C66.1127 42.4781 65.653 41.2271 65.653 39.9286C65.653 38.63 66.1127 37.379 66.9408 36.4239C67.3467 35.9566 67.8393 35.5837 68.3876 35.3287C68.9359 35.0736 69.528 34.942 70.1266 34.9421C70.7143 34.9444 71.2951 35.0775 71.8316 35.3327C72.368 35.5879 72.8481 35.9596 73.2411 36.4239Z" fill="white"/>
<path d="M77.5259 43.3789H78.3335C79.1595 43.3789 79.9517 43.0303 80.5358 42.4098C81.1199 41.7893 81.448 40.9478 81.448 40.0703C81.448 39.1928 81.1199 38.3513 80.5358 37.7308C79.9517 37.1104 79.1595 36.7618 78.3335 36.7618H77.5259V43.3789ZM76.0821 44.154V35.9796C76.0809 35.8791 76.0987 35.7794 76.1344 35.6863C76.1701 35.5932 76.223 35.5087 76.29 35.4378C76.357 35.3668 76.4367 35.3109 76.5244 35.2732C76.6121 35.2356 76.7061 35.217 76.8007 35.2186H78.3357C79.5104 35.2737 80.6197 35.8082 81.4326 36.7108C82.2455 37.6133 82.6992 38.8142 82.6992 40.0632C82.6992 41.3123 82.2455 42.5132 81.4326 43.4157C80.6197 44.3182 79.5104 44.8527 78.3357 44.9079H76.8007C76.7065 44.9082 76.6132 44.8887 76.5262 44.8506C76.4391 44.8124 76.36 44.7564 76.2935 44.6857C76.2269 44.615 76.1741 44.5309 76.1382 44.4385C76.1023 44.346 76.084 44.2469 76.0843 44.1469" fill="white"/>
<path d="M85.8373 43.3791H86.6449C87.4709 43.3791 88.2631 43.0305 88.8472 42.41C89.4313 41.7895 89.7594 40.948 89.7594 40.0705C89.7594 39.1931 89.4313 38.3515 88.8472 37.731C88.2631 37.1106 87.4709 36.762 86.6449 36.762H85.8373V43.3791ZM84.3935 44.1542V35.9798C84.3923 35.8795 84.41 35.78 84.4456 35.6871C84.4812 35.5942 84.5339 35.5098 84.6006 35.4389C84.6674 35.3679 84.7468 35.3119 84.8343 35.2741C84.9217 35.2364 85.0154 35.2175 85.1098 35.2188H86.6449C87.8196 35.2739 88.9289 35.8085 89.7418 36.711C90.5547 37.6135 91.0084 38.8144 91.0084 40.0634C91.0084 41.3125 90.5547 42.5134 89.7418 43.4159C88.9289 44.3184 87.8196 44.8529 86.6449 44.9081H85.1098C85.0157 44.9084 84.9224 44.8889 84.8354 44.8508C84.7483 44.8127 84.6692 44.7566 84.6027 44.6859C84.5361 44.6152 84.4833 44.5312 84.4474 44.4387C84.4115 44.3462 84.3932 44.2471 84.3935 44.1471" fill="white"/>
<path d="M96.3778 41.1102L95.3256 38.1325L94.2666 41.1102H96.3778ZM96.9118 42.6345H93.746L93.1076 44.4353C93.0522 44.5749 92.9594 44.6941 92.8407 44.7781C92.7221 44.8622 92.5828 44.9073 92.4402 44.9079C92.3564 44.9082 92.2731 44.8947 92.1932 44.8677C92.0139 44.793 91.869 44.6473 91.7889 44.4612C91.7088 44.2752 91.6998 44.0634 91.7638 43.8705L94.6381 35.7102C94.6936 35.5644 94.7895 35.44 94.9131 35.3535C95.0366 35.267 95.1821 35.2224 95.33 35.2257C95.4778 35.2207 95.6233 35.2646 95.7465 35.3514C95.8697 35.4382 95.9644 35.5636 96.0174 35.7102L98.8917 43.8705C98.9358 43.9857 98.9523 44.1108 98.9398 44.2345C98.9274 44.3582 98.8862 44.4767 98.8201 44.5795C98.7541 44.6822 98.6651 44.7659 98.5611 44.8232C98.4571 44.8806 98.3415 44.9096 98.2243 44.9079C98.0809 44.9112 97.94 44.8676 97.8207 44.7831C97.7013 44.6985 97.6093 44.5771 97.5569 44.4353L96.9118 42.6345Z" fill="white"/>
<path d="M104.451 38.1965C104.454 38.0085 104.421 37.8218 104.356 37.6473C104.29 37.4728 104.192 37.314 104.068 37.1801C103.943 37.0461 103.795 36.9398 103.632 36.8672C103.469 36.7946 103.293 36.7573 103.117 36.7573H101.517V39.6097H103.117C103.471 39.6097 103.81 39.4603 104.06 39.1944C104.311 38.9285 104.451 38.5678 104.451 38.1918M106.271 43.7619C106.301 43.8573 106.313 43.9581 106.306 44.0585C106.3 44.1588 106.274 44.2568 106.232 44.3468C106.19 44.4367 106.131 44.517 106.06 44.5829C105.988 44.6488 105.905 44.6991 105.815 44.7308C105.722 44.758 105.627 44.7723 105.53 44.7734H105.517C105.338 44.7747 105.161 44.7214 105.01 44.6198C104.836 44.4966 104.693 44.3303 104.594 44.1353C104.385 43.6132 104.292 43.0474 104.32 42.481C104.319 42.2706 104.265 42.0641 104.164 41.8831C104.064 41.7198 103.93 41.5825 103.773 41.4814C103.549 41.3299 103.303 41.2182 103.045 41.1505H101.51V44.1566C101.509 44.3599 101.431 44.5541 101.295 44.6968C101.158 44.8394 100.974 44.9188 100.783 44.9175C100.689 44.9178 100.595 44.8984 100.508 44.8602C100.421 44.8221 100.342 44.7661 100.276 44.6953C100.209 44.6246 100.156 44.5406 100.12 44.4481C100.084 44.3557 100.066 44.2566 100.066 44.1566V35.9798C100.065 35.8795 100.083 35.78 100.119 35.6871C100.154 35.5942 100.207 35.5098 100.274 35.4389C100.34 35.3679 100.42 35.3119 100.507 35.2741C100.595 35.2364 100.688 35.2175 100.783 35.2188H103.11C103.684 35.2199 104.244 35.4092 104.713 35.7609C105.183 36.1126 105.538 36.6096 105.732 37.184C105.925 37.7584 105.947 38.3822 105.794 38.9703C105.642 39.5584 105.322 40.0821 104.878 40.4699C105.057 40.6123 105.211 40.7857 105.335 40.9827C105.617 41.4234 105.767 41.9453 105.764 42.4787C105.752 42.7516 105.769 43.0252 105.815 43.294C105.921 43.3291 106.017 43.3901 106.096 43.4723C106.176 43.5544 106.235 43.6553 106.271 43.7666" fill="white"/>
<path d="M109.172 43.3791H109.977C110.803 43.3791 111.596 43.0305 112.18 42.41C112.764 41.7895 113.092 40.948 113.092 40.0705C113.092 39.1931 112.764 38.3515 112.18 37.731C111.596 37.1106 110.803 36.762 109.977 36.762H109.172V43.3791ZM107.724 44.1542V35.9798C107.722 35.8796 107.74 35.7801 107.775 35.6872C107.81 35.5944 107.863 35.5099 107.929 35.439C107.996 35.368 108.075 35.312 108.163 35.2742C108.25 35.2364 108.344 35.2175 108.438 35.2188H109.973C111.148 35.2739 112.257 35.8085 113.07 36.711C113.883 37.6135 114.336 38.8144 114.336 40.0634C114.336 41.3125 113.883 42.5134 113.07 43.4159C112.257 44.3184 111.148 44.8529 109.973 44.9081H108.438C108.344 44.9084 108.251 44.8889 108.164 44.8507C108.077 44.8126 107.998 44.7565 107.931 44.6858C107.865 44.615 107.812 44.531 107.777 44.4385C107.741 44.3461 107.723 44.247 107.724 44.1471" fill="white"/>
<path d="M119.394 42.5047C119.509 42.3594 119.673 42.2679 119.851 42.2498C120.028 42.2317 120.206 42.2884 120.344 42.4078C120.916 42.9064 121.902 43.4878 122.827 43.4759C123.406 43.4871 123.974 43.308 124.453 42.9631C124.616 42.8576 124.752 42.7117 124.85 42.538C124.947 42.3643 125.004 42.1679 125.014 41.9658C125.017 41.8087 124.976 41.6542 124.896 41.5216C124.797 41.3553 124.664 41.2148 124.507 41.1104C123.956 40.7806 123.353 40.5603 122.727 40.4605H122.7C122.122 40.3556 121.558 40.1738 121.023 39.9193C120.53 39.6902 120.11 39.3152 119.813 38.8393C119.615 38.496 119.511 38.1005 119.515 37.6978C119.527 37.2978 119.627 36.9064 119.807 36.555C119.988 36.2036 120.243 35.9022 120.553 35.6749C121.212 35.1865 121.999 34.9302 122.803 34.9423C124.051 34.9423 124.974 35.5922 125.637 36.0507C125.784 36.1554 125.885 36.3178 125.92 36.5021C125.954 36.6865 125.918 36.8777 125.819 37.0338C125.773 37.1133 125.712 37.182 125.639 37.2358C125.567 37.2896 125.486 37.3274 125.399 37.3468C125.313 37.3662 125.224 37.3669 125.138 37.3489C125.051 37.3308 124.969 37.2944 124.896 37.2417C124.229 36.7691 123.597 36.3555 122.803 36.3555C122.282 36.3473 121.773 36.5126 121.345 36.8282C121.203 36.9199 121.083 37.047 120.997 37.1984C120.911 37.3498 120.86 37.5211 120.849 37.6978C120.842 37.8339 120.874 37.9691 120.941 38.0854C121.035 38.2295 121.155 38.3524 121.294 38.447C121.794 38.7595 122.347 38.9665 122.921 39.0567H122.945C123.564 39.1712 124.167 39.3665 124.74 39.6381C125.267 39.883 125.719 40.2811 126.042 40.7866C126.246 41.1426 126.353 41.5514 126.353 41.9682C126.342 42.394 126.235 42.8107 126.041 43.1839C125.848 43.557 125.573 43.8759 125.241 44.114C124.535 44.6391 123.689 44.9115 122.827 44.8915C121.423 44.8773 120.24 44.1306 119.49 43.5067C119.354 43.3843 119.268 43.2112 119.248 43.0231C119.229 42.8349 119.278 42.646 119.386 42.4952" fill="white"/>
<path d="M127.381 39.9287C127.404 38.599 127.917 37.3319 128.809 36.3995C129.702 35.4671 130.903 34.9439 132.155 34.9422C133.242 34.9352 134.299 35.3154 135.159 36.0222C135.308 36.1555 135.404 36.3436 135.429 36.5491C135.453 36.7546 135.403 36.9622 135.29 37.1306C135.168 37.2932 134.992 37.3997 134.798 37.4278C134.604 37.456 134.407 37.4037 134.249 37.2818C133.657 36.7747 132.916 36.5052 132.155 36.5209C131.284 36.526 130.446 36.8824 129.813 37.5182C129.207 38.1558 128.863 39.0226 128.858 39.9287C128.858 40.3773 128.942 40.8216 129.105 41.2355C129.268 41.6494 129.507 42.0246 129.808 42.3392C130.442 42.9749 131.279 43.3314 132.151 43.3364C132.911 43.3497 133.651 43.0805 134.244 42.5755C134.405 42.4601 134.6 42.4118 134.792 42.4397C134.984 42.4676 135.16 42.5698 135.285 42.7267C135.399 42.8949 135.449 43.1027 135.425 43.3083C135.401 43.514 135.304 43.7022 135.154 43.8351C134.295 44.5419 133.237 44.9222 132.151 44.9151C130.898 44.9171 129.695 44.3949 128.803 43.4616C127.91 42.5283 127.399 41.2591 127.381 39.9287" fill="white"/>
<path d="M137.163 44.154V35.9796C137.161 35.8794 137.179 35.7799 137.214 35.687C137.25 35.5941 137.302 35.5097 137.369 35.4388C137.435 35.3678 137.515 35.3118 137.602 35.274C137.689 35.2361 137.783 35.2173 137.877 35.2186C137.972 35.217 138.066 35.2356 138.155 35.2731C138.243 35.3106 138.323 35.3664 138.391 35.4373C138.458 35.5081 138.512 35.5925 138.549 35.6856C138.586 35.7787 138.605 35.8786 138.605 35.9796V39.3046H141.984V35.9796C141.982 35.8794 142 35.7799 142.035 35.687C142.07 35.5941 142.123 35.5097 142.19 35.4388C142.256 35.3678 142.335 35.3118 142.423 35.274C142.51 35.2361 142.604 35.2173 142.698 35.2186C142.793 35.217 142.888 35.2355 142.976 35.2731C143.064 35.3106 143.145 35.3663 143.212 35.4371C143.28 35.5079 143.334 35.5923 143.371 35.6854C143.408 35.7785 143.427 35.8785 143.428 35.9796V44.154C143.428 44.2551 143.409 44.3553 143.372 44.4485C143.335 44.5418 143.281 44.6263 143.213 44.6971C143.145 44.768 143.065 44.8238 142.976 44.8611C142.888 44.8985 142.793 44.9168 142.698 44.915C142.604 44.9162 142.51 44.8974 142.423 44.8596C142.335 44.8218 142.256 44.7657 142.19 44.6948C142.123 44.6238 142.07 44.5394 142.035 44.4465C142 44.3536 141.982 44.2542 141.984 44.154V40.8289H138.605V44.154C138.605 44.2549 138.586 44.3549 138.549 44.448C138.512 44.5411 138.458 44.6255 138.391 44.6963C138.323 44.7671 138.243 44.8229 138.155 44.8605C138.066 44.898 137.972 44.9165 137.877 44.915C137.783 44.9162 137.689 44.8974 137.602 44.8596C137.515 44.8218 137.435 44.7657 137.369 44.6948C137.302 44.6238 137.25 44.5394 137.214 44.4465C137.179 44.3536 137.161 44.2542 137.163 44.154Z" fill="white"/>
<path d="M152.353 39.9286C152.351 39.0308 152.034 38.166 151.463 37.5039C151.2 37.1944 150.879 36.9471 150.521 36.7777C150.162 36.6084 149.774 36.5209 149.382 36.5209C148.99 36.5209 148.602 36.6084 148.243 36.7777C147.885 36.9471 147.564 37.1944 147.301 37.5039C146.732 38.1655 146.422 39.0325 146.433 39.9286C146.425 40.824 146.744 41.6879 147.323 42.3391C147.584 42.6525 147.904 42.9035 148.263 43.0754C148.622 43.2473 149.011 43.3363 149.404 43.3363C149.798 43.3363 150.187 43.2473 150.546 43.0754C150.905 42.9035 151.225 42.6525 151.486 42.3391C152.058 41.6835 152.376 40.8225 152.375 39.9286M152.544 36.4239C153.389 37.3703 153.859 38.6246 153.859 39.9286C153.859 41.2325 153.389 42.4868 152.544 43.4332C152.15 43.8953 151.669 44.2654 151.133 44.5205C150.597 44.7755 150.017 44.9098 149.43 44.915C148.832 44.9119 148.24 44.7789 147.692 44.524C147.144 44.2692 146.65 43.898 146.242 43.4332C145.415 42.4776 144.956 41.2268 144.956 39.9286C144.956 38.6304 145.415 37.3795 146.242 36.4239C146.647 35.9587 147.137 35.587 147.683 35.3321C148.229 35.0771 148.818 34.9444 149.414 34.9421C150.002 34.9441 150.583 35.077 151.12 35.3323C151.656 35.5875 152.136 35.9594 152.529 36.4239" fill="white"/>
<path d="M162.629 39.9286C162.628 39.0306 162.311 38.1655 161.739 37.5039C161.48 37.1978 161.163 36.9523 160.81 36.783C160.456 36.6138 160.073 36.5245 159.686 36.5208C159.289 36.5185 158.897 36.6048 158.534 36.7742C158.171 36.9436 157.846 37.1922 157.579 37.5039C157.002 38.1619 156.684 39.0293 156.689 39.9286C156.681 40.824 157 41.6879 157.579 42.3391C157.839 42.6524 158.159 42.9034 158.518 43.0753C158.877 43.2472 159.266 43.3361 159.659 43.3361C160.052 43.3361 160.441 43.2472 160.8 43.0753C161.159 42.9034 161.479 42.6524 161.739 42.3391C162.313 41.6844 162.631 40.8228 162.629 39.9286M162.798 36.4239C163.641 37.3712 164.11 38.6252 164.11 39.9286C164.11 41.232 163.641 42.486 162.798 43.4332C162.403 43.8953 161.923 44.2654 161.387 44.5205C160.851 44.7755 160.271 44.9098 159.683 44.915C159.085 44.9119 158.494 44.7789 157.945 44.524C157.397 44.2692 156.904 43.898 156.496 43.4332C155.667 42.4781 155.208 41.2271 155.208 39.9286C155.208 38.63 155.667 37.379 156.496 36.4239C156.902 35.9566 157.395 35.5838 157.944 35.3288C158.492 35.0738 159.085 34.9421 159.683 34.9421C160.271 34.9441 160.852 35.077 161.389 35.3323C161.925 35.5875 162.405 35.9594 162.798 36.4239" fill="white"/>
<path d="M165.959 44.1542V35.9797C165.959 35.8795 165.977 35.7802 166.013 35.6876C166.05 35.595 166.102 35.5109 166.169 35.4401C166.236 35.3694 166.315 35.3134 166.403 35.2754C166.49 35.2374 166.584 35.2181 166.678 35.2188C166.87 35.2175 167.054 35.2968 167.191 35.4394C167.327 35.582 167.405 35.7762 167.408 35.9797V43.379H170.927C171.119 43.3792 171.302 43.4602 171.438 43.6042C171.573 43.7482 171.65 43.9435 171.65 44.1471C171.65 44.3507 171.573 44.5459 171.438 44.69C171.302 44.834 171.119 44.915 170.927 44.9151H166.678C166.584 44.9154 166.491 44.8959 166.404 44.8578C166.317 44.8196 166.238 44.7636 166.172 44.6928C166.105 44.622 166.053 44.538 166.017 44.4456C165.981 44.3531 165.963 44.2541 165.964 44.1542" fill="white"/>
<path d="M171.628 31.4163H55.6884V32.5695H171.628V31.4163Z" fill="white"/>
<path d="M171.628 47.2666H55.6884V48.4199H171.628V47.2666Z" fill="white"/>
<path d="M47.2835 42.689C47.2173 42.4483 47.1027 42.2258 46.9476 42.0367C46.6905 41.7377 46.3835 41.4917 46.0421 41.3112L45.9331 41.2521L45.902 41.2332L45.8775 41.2049L45.7952 41.1245L45.4593 40.7889L44.7919 40.1154L43.4304 38.7707L42.06 37.4261L40.6406 36.1475C40.1779 35.7245 39.7196 35.2921 39.2925 34.843C39.0814 34.6333 38.8851 34.4074 38.7051 34.1672C38.6725 34.1213 38.6428 34.0731 38.6162 34.023C38.6162 34.023 38.6162 34.0041 38.6006 33.9852C38.585 33.9663 38.5895 33.9497 38.5828 33.9356L38.5427 33.8103C38.4849 33.6472 38.4204 33.4842 38.3492 33.3258C38.0588 32.7152 37.6463 32.1792 37.1406 31.7555C36.6349 31.3318 36.0482 31.0306 35.4215 30.8728C35.969 31.1331 36.4627 31.5057 36.8743 31.9692C37.2858 32.4328 37.6071 32.9781 37.8197 33.574C37.8687 33.7174 37.9109 33.8639 37.9465 34.0135L37.971 34.1246L37.9866 34.1955C37.9927 34.2211 38.0001 34.2464 38.0088 34.2711C38.0448 34.3722 38.0895 34.4695 38.1423 34.5618C38.3186 34.8576 38.5157 35.1389 38.7318 35.4031C39.1501 35.9112 39.5883 36.3839 40.0311 36.8565C40.4738 37.3292 40.9343 37.7805 41.3659 38.2201L42.0132 38.9102L42.6807 39.605L44.0155 40.978L44.6829 41.661L45.021 42.0013L45.1078 42.0887L45.1545 42.1336C45.1859 42.1653 45.2193 42.1945 45.2546 42.2211L45.2924 42.2471H45.3102L45.3347 42.2636L45.3703 42.2825L45.4259 42.3132L45.5216 42.3652C45.7382 42.4757 45.9342 42.627 46.1 42.8119C46.1499 42.8694 46.1884 42.9369 46.2135 43.0104C46.2291 43.0675 46.2291 43.1282 46.2135 43.1853C46.1955 43.2513 46.1701 43.3148 46.1378 43.3743L46.0844 43.4641C46.0466 43.5279 45.9977 43.6177 45.9532 43.7004C45.9087 43.7832 45.8708 43.8635 45.8308 43.9368C45.6777 44.2719 45.562 44.6248 45.486 44.9884C45.4482 45.168 45.4215 45.3523 45.3992 45.5225L45.3725 45.7588V45.773L45.1968 45.8841C45.07 45.9644 44.9387 46.0424 44.8052 46.1204C44.2886 46.4267 43.7518 46.6928 43.199 46.9168C43.0795 46.962 42.9567 46.9968 42.8319 47.0208C42.7852 47.0208 42.7385 47.0208 42.7741 47.035H42.7963H42.783L42.7563 47.0232C42.7385 47.0232 42.7563 47.0232 42.7563 47.0232C42.7408 47.0131 42.726 47.0021 42.7118 46.9901C42.5157 46.7908 42.3458 46.5642 42.2068 46.3165C42.12 46.1795 42.0333 46.0401 41.9332 45.8959C41.8817 45.8178 41.8252 45.7435 41.7641 45.6737C41.6884 45.5785 41.5972 45.4984 41.4949 45.4374C41.4569 45.4189 41.4174 45.4039 41.377 45.3925L41.308 45.3807H41.2791H41.1701L40.9476 45.3571L40.4916 45.3027C39.8842 45.2247 39.2769 45.1208 38.6762 44.9931C38.3759 44.927 38.0778 44.849 37.7863 44.7568C37.4895 44.6732 37.2076 44.5383 36.9521 44.3574C37.1789 44.5879 37.4426 44.7735 37.7307 44.9057C38.0138 45.0481 38.3042 45.1736 38.6006 45.2815C39.1928 45.4961 39.795 45.6783 40.4048 45.8274L40.8631 45.9361L41.0856 45.9857L41.2057 46.007H41.2368H41.2057C41.2325 46.037 41.2578 46.0685 41.2813 46.1015C41.3147 46.1511 41.3525 46.2126 41.3881 46.2764C41.4593 46.4064 41.5283 46.5481 41.6106 46.6923C41.6929 46.8365 41.7596 46.9901 41.8486 47.1437C41.9427 47.316 42.057 47.4748 42.189 47.6163C42.2314 47.6595 42.2776 47.6982 42.3269 47.7321C42.356 47.754 42.3865 47.7738 42.4181 47.7912L42.4426 47.8054H42.456L42.4893 47.8219H42.5049C42.6335 47.8687 42.7699 47.8864 42.9053 47.8739C43.0882 47.8568 43.2691 47.822 43.4459 47.7699C44.0649 47.5788 44.6677 47.333 45.2479 47.035C45.3925 46.9617 45.5349 46.8885 45.6795 46.7986L45.902 46.6758L46.0221 46.6025C46.0546 46.5808 46.0858 46.5572 46.1156 46.5316C46.146 46.5076 46.1736 46.4798 46.1979 46.4489C46.2258 46.4163 46.2504 46.3806 46.2713 46.3425C46.3161 46.2608 46.3491 46.1724 46.3692 46.0802C46.3848 46.0164 46.3914 45.9668 46.4003 45.9195L46.4381 45.669C46.4626 45.5154 46.4893 45.3736 46.5249 45.2342C46.5921 44.9593 46.6891 44.6936 46.8141 44.4425C46.8453 44.3787 46.8764 44.3149 46.912 44.2534C46.9476 44.192 46.9743 44.1424 47.021 44.0691L47.0922 43.9509C47.1189 43.9037 47.1456 43.8564 47.1701 43.8044C47.2226 43.6959 47.2644 43.5818 47.2946 43.4641C47.3549 43.2092 47.3511 42.9419 47.2835 42.689V42.689Z" fill="#0F2D52"/>
<path d="M37.7352 42.9772C37.1169 43.2177 36.4816 43.4058 35.8353 43.5397C35.2476 43.6715 34.6397 43.6626 34.0556 43.5137C33.4942 43.3403 32.992 42.998 32.6095 42.5282C32.1897 41.9991 31.8173 41.4294 31.4972 40.8267C31.5179 41.5778 31.721 42.3104 32.0867 42.9536C32.2808 43.2923 32.5302 43.5916 32.8231 43.8374C33.1255 44.0914 33.4727 44.2786 33.8442 44.3881C34.5698 44.58 35.3341 44.522 36.0267 44.2226C36.6814 43.958 37.2672 43.531 37.7352 42.9772V42.9772Z" fill="#0F2D52"/>
<path d="M32.169 47.2854C32.0044 46.8813 31.8442 46.496 31.6996 46.1038C31.664 46.0092 31.6262 45.9076 31.595 45.8154C31.5639 45.7233 31.5328 45.6382 31.5083 45.5484C31.4578 45.3666 31.4206 45.1809 31.3971 44.993C31.3142 44.1654 31.4457 43.3294 31.7775 42.5754C31.4098 42.8566 31.1055 43.2211 30.8866 43.6425C30.6677 44.0638 30.5396 44.5316 30.5116 45.0119C30.4901 45.263 30.4954 45.5159 30.5272 45.7658C30.542 45.8907 30.5636 46.0146 30.5917 46.1368C30.6206 46.255 30.6473 46.3732 30.6785 46.4771C30.8042 46.911 30.9528 47.3371 31.1234 47.7533C31.4504 48.5639 31.773 49.3083 32.0133 50.1165C32.2536 50.9247 32.4582 51.7542 32.7029 52.631C32.9291 51.7454 32.9895 50.8213 32.8809 49.9109C32.7649 49.0037 32.5251 48.1192 32.169 47.2854V47.2854Z" fill="#0F2D52"/>
<path d="M31.7019 54.0561C31.6534 53.5458 31.5791 53.0385 31.4794 52.5366C31.38 52.0299 31.256 51.529 31.1079 51.0359C30.5345 49.0245 29.5345 47.1796 28.1847 45.643C27.8442 45.2585 27.48 44.8985 27.0946 44.5654C26.8943 44.3929 26.7253 44.2487 26.5562 44.0927C26.3871 43.9368 26.2225 43.7784 26.0645 43.6201C25.4315 42.9635 24.9053 42.2001 24.5073 41.3608C24.1028 40.5167 23.8752 39.5896 23.8398 38.6431C23.8119 37.6568 24.0072 36.6778 24.4094 35.7883C23.7427 36.5719 23.322 37.5564 23.2058 38.6053C23.086 39.6812 23.2229 40.7719 23.604 41.7768C23.9866 42.7786 24.5531 43.6896 25.2703 44.4567C25.4461 44.6481 25.6307 44.8301 25.8198 45.0073C26.0089 45.1846 26.2158 45.35 26.3849 45.4941C26.7355 45.7977 27.0704 46.1212 27.3882 46.4631C28.6639 47.8649 29.6711 49.5167 30.3537 51.3266C30.525 51.7827 30.6963 52.2435 30.8387 52.7162C30.9811 53.1888 31.1079 53.6615 31.228 54.1341C31.3526 54.6729 31.4505 55.2141 31.5528 55.7624L31.7975 55.8002V55.5639C31.7894 55.0599 31.7575 54.5567 31.7019 54.0561V54.0561Z" fill="#0F2D52"/>
<path d="M28.1245 42.7765C27.8642 42.4716 27.5906 42.1904 27.3459 41.9115C27.1067 41.6504 26.8908 41.3664 26.7007 41.0631C26.5202 40.7663 26.371 40.4493 26.2558 40.1178C26.0013 39.4584 25.8764 38.7507 25.8887 38.0382C25.9153 37.3341 26.1039 36.6476 26.4382 36.0389C26.7961 35.3992 27.2465 34.8234 27.773 34.3326C28.0377 34.0798 28.3203 33.8363 28.6117 33.6024C28.9032 33.3684 29.2124 33.1581 29.5238 32.943C30.1583 32.5216 30.8149 32.1389 31.4905 31.7969C30.7364 31.9288 29.999 32.1516 29.2925 32.4609C28.9338 32.6128 28.5839 32.7872 28.2446 32.9832C27.8982 33.1768 27.5651 33.3964 27.248 33.6402C26.5842 34.132 26.0124 34.7506 25.5617 35.4646C25.0934 36.2154 24.8209 37.0847 24.7719 37.9838C24.7373 38.8693 24.8893 39.7518 25.2168 40.5668C25.3747 40.9776 25.5802 41.3658 25.8286 41.7225C26.078 42.0693 26.3622 42.3863 26.6762 42.6678C27.2791 43.2042 27.8598 43.6367 28.3737 44.1826C28.896 44.7457 29.3703 45.3571 29.7908 46.0094C29.6018 45.2103 29.2834 44.4522 28.8498 43.769C28.6317 43.4194 28.3892 43.0876 28.1245 42.7765V42.7765Z" fill="#0F2D52"/>
<path d="M27.1523 32.5199C27.9577 32.0888 28.792 31.7215 29.6484 31.421C30.0756 31.2651 30.5072 31.1233 30.9432 31.0004C31.2302 30.92 31.5305 30.8444 31.8219 30.783L33.1367 34.3491L32.8008 30.3009C32.7153 29.5325 32.7983 28.7536 33.0433 28.0251C33.17 27.6803 33.3505 27.3608 33.5772 27.0798C33.6417 26.9994 33.7085 26.9262 33.7797 26.8434C33.8353 27.5524 33.8887 28.2614 33.9532 28.9491L34.0133 29.6297L34.5138 29.261C34.638 29.1668 34.7463 29.0509 34.8342 28.9184C34.9092 28.8125 34.9783 28.7021 35.0411 28.5875C35.1656 28.3677 35.2635 28.148 35.3725 27.9258C35.4815 27.7037 35.595 27.4106 35.6951 27.1483C35.8285 27.5572 35.9035 27.9849 35.9176 28.4174C35.9317 28.7437 35.9145 29.0707 35.8664 29.3934C35.8152 29.7189 35.7263 30.0364 35.6017 30.3387C35.7709 30.0526 35.9062 29.7454 36.0043 29.4241C36.1046 29.0982 36.1695 28.7612 36.1979 28.4197C36.2567 27.7203 36.1568 27.016 35.9065 26.3661L35.7129 25.8603L35.466 26.3803C35.2658 26.7985 35.0522 27.2192 34.8297 27.6186C34.7793 27.7131 34.7259 27.8053 34.6695 27.8951C34.6584 27.2357 34.6428 26.5788 34.6317 25.9194V25.2104L34.0088 25.4822C33.9243 25.5177 33.882 25.5413 33.8219 25.572L33.664 25.6642C33.5633 25.7277 33.466 25.7972 33.3725 25.8722C33.1872 26.0204 33.0145 26.1856 32.8564 26.3661C32.5351 26.7296 32.2741 27.1483 32.0845 27.6044C31.8295 28.2377 31.692 28.9174 31.6796 29.6061C31.3281 29.6746 30.9966 29.755 30.654 29.8424C30.1883 29.9684 29.7285 30.1126 29.2747 30.2749C28.3691 30.6078 27.4879 31.0114 26.6384 31.4825C25.7855 31.955 24.9746 32.5087 24.2157 33.1367C23.4556 33.752 22.753 34.4437 22.1179 35.2022L22.0867 35.2424V35.2566C21.2755 36.3079 20.6847 37.5309 20.3537 38.844C19.9982 40.2078 20.0237 41.6521 20.4271 43.0009C20.8464 44.3284 21.5886 45.5146 22.5784 46.4394C23.5208 47.3543 24.6388 48.0413 25.8553 48.4529C24.8304 47.7304 23.8928 46.8772 23.0634 45.9124C22.2614 44.9846 21.6493 43.8902 21.2658 42.6984C20.9132 41.5021 20.8279 40.235 21.0166 38.9976C21.0934 38.4821 21.2004 37.9722 21.337 37.4709C21.3103 37.6529 21.2881 37.8325 21.2747 38.0145C21.215 38.9549 21.3276 39.8987 21.6062 40.7936C21.8881 41.6689 22.2947 42.493 22.812 43.2372C23.0668 43.5972 23.3401 43.9419 23.6307 44.2699C23.9221 44.5984 24.2291 44.908 24.545 45.2152C24.2714 44.8726 24.0111 44.5228 23.7708 44.1589C23.5294 43.8011 23.3066 43.4295 23.1034 43.0458C22.684 42.2953 22.3693 41.4841 22.169 40.6377C21.9756 39.8126 21.9341 38.9555 22.0467 38.1137C22.1009 37.7007 22.194 37.2946 22.3248 36.9014C22.3893 36.7067 22.4636 36.5158 22.5472 36.3295C22.5895 36.2373 22.634 36.1475 22.6807 36.0624C22.7274 35.9774 22.7608 35.9183 22.7964 35.8639C23.4258 35.1891 24.1074 34.5717 24.8342 34.0182C25.5722 33.4605 26.3469 32.9598 27.1523 32.5199V32.5199Z" fill="#0F2D52"/>
<path d="M175.999 33.2762C176.009 33.6573 175.911 34.0328 175.719 34.3544C175.526 34.676 175.247 34.9292 174.918 35.0812C174.589 35.2333 174.225 35.2774 173.872 35.2079C173.519 35.1384 173.194 34.9584 172.938 34.691C172.682 34.4237 172.507 34.0812 172.436 33.7076C172.365 33.3339 172.401 32.9462 172.538 32.5942C172.676 32.2422 172.91 31.942 173.209 31.7321C173.509 31.5222 173.861 31.4123 174.22 31.4164C174.451 31.4142 174.681 31.4606 174.896 31.5529C175.111 31.6452 175.307 31.7816 175.472 31.9544C175.638 32.1271 175.769 32.3328 175.86 32.5596C175.95 32.7864 175.998 33.0299 175.999 33.2762V33.2762ZM172.849 33.2762C172.844 33.4698 172.876 33.6625 172.943 33.8428C173.009 34.0231 173.109 34.1874 173.237 34.326C173.364 34.4646 173.516 34.5746 173.684 34.6496C173.852 34.7246 174.033 34.7631 174.215 34.7627C174.395 34.7629 174.573 34.7244 174.739 34.6496C174.904 34.5748 175.054 34.4653 175.178 34.3276C175.303 34.1898 175.4 34.0267 175.464 33.8481C175.528 33.6695 175.557 33.479 175.55 33.2881C175.55 32.9076 175.408 32.5427 175.154 32.2737C174.901 32.0047 174.558 31.8536 174.2 31.8536C173.841 31.8536 173.498 32.0047 173.245 32.2737C172.991 32.5427 172.849 32.9076 172.849 33.2881V33.2762ZM173.926 34.2404H173.521V32.3806C173.742 32.3446 173.965 32.3256 174.188 32.3239C174.397 32.3 174.607 32.3517 174.785 32.4704C174.843 32.5158 174.89 32.5757 174.922 32.6449C174.954 32.714 174.969 32.7904 174.967 32.8674C174.963 32.9731 174.926 33.0743 174.861 33.1548C174.797 33.2354 174.709 33.2906 174.611 33.3117V33.333C174.78 33.3897 174.867 33.5386 174.92 33.7867C174.942 33.9435 174.985 34.0962 175.047 34.2404H174.622C174.551 34.099 174.504 33.9454 174.482 33.7867C174.451 33.5953 174.344 33.5031 174.119 33.5031H173.926V34.2404ZM173.926 33.1982H174.119C174.342 33.1982 174.524 33.1179 174.524 32.9241C174.524 32.7303 174.406 32.6405 174.151 32.6405C174.076 32.6391 174.001 32.647 173.928 32.6642L173.926 33.1982Z" fill="white"/>
</g>
<rect x="10" y="90" width="1260" height="86" rx="5" fill="white"/>
<line x1="307.751" y1="114" x2="307.751" y2="152" stroke="#D7D7D7" stroke-width="0.5"/>
<line x1="621.852" y1="114" x2="621.852" y2="152" stroke="#D7D7D7" stroke-width="0.5"/>
<line x1="971.952" y1="114" x2="971.952" y2="152" stroke="#D7D7D7" stroke-width="0.5"/>
<rect x="10" y="184" width="1260" height="525" rx="5" fill="white"/>
<circle cx="53" cy="133" r="19" fill="#EAF4FF"/>
<path d="M63.0286 136.682C63.0286 135.917 62.5358 135.271 61.8533 135.027V128.94L63.0286 128.455L52.9999 124.431L42.9713 128.455L52.9999 132.479L60.6781 129.412V135.027C59.9956 135.271 59.5029 135.917 59.5029 136.682C59.5029 137.382 59.9166 137.983 60.5097 138.268L59.5333 141.197L60.6477 141.569L61.2657 139.715L61.8837 141.569L62.9981 141.197L62.0217 138.268C62.6149 137.983 63.0286 137.382 63.0286 136.682Z" fill="#002855"/>
<path d="M53 133.745L47.7114 131.622V133.156C47.7114 134.831 49.985 136.094 53 136.094C56.0149 136.094 58.2885 134.831 58.2885 133.156V131.622L53 133.745Z" fill="#002855"/>
<circle cx="665" cy="133" r="19" fill="#E9F6FF"/>
<path d="M667.107 127.373C668.048 127.963 668.709 128.962 668.829 130.122C669.213 130.301 669.639 130.405 670.091 130.405C671.74 130.405 673.077 129.068 673.077 127.418C673.077 125.769 671.74 124.432 670.091 124.432C668.457 124.432 667.132 125.745 667.107 127.373ZM665.15 133.488C666.8 133.488 668.137 132.151 668.137 130.501C668.137 128.852 666.799 127.515 665.15 127.515C663.501 127.515 662.163 128.852 662.163 130.502C662.163 132.151 663.501 133.488 665.15 133.488ZM666.417 133.691H663.883C661.774 133.691 660.059 135.407 660.059 137.516V140.615L660.067 140.663L660.28 140.73C662.292 141.359 664.041 141.569 665.48 141.569C668.29 141.569 669.919 140.767 670.019 140.716L670.219 140.615H670.24V137.516C670.241 135.407 668.526 133.691 666.417 133.691ZM671.358 130.608H668.843C668.816 131.614 668.387 132.52 667.707 133.172C669.582 133.729 670.953 135.467 670.953 137.52V138.475C673.436 138.384 674.867 137.681 674.961 137.633L675.16 137.532H675.182V134.432C675.182 132.324 673.466 130.608 671.358 130.608ZM659.91 130.405C660.494 130.405 661.038 130.235 661.498 129.944C661.644 128.989 662.156 128.155 662.887 127.587C662.89 127.531 662.896 127.475 662.896 127.419C662.896 125.769 661.558 124.432 659.91 124.432C658.26 124.432 656.923 125.769 656.923 127.419C656.923 129.068 658.26 130.405 659.91 130.405ZM662.592 133.172C661.916 132.524 661.488 131.623 661.457 130.623C661.363 130.616 661.271 130.608 661.176 130.608H658.642C656.534 130.608 654.818 132.324 654.818 134.432V137.532L654.826 137.579L655.039 137.647C656.654 138.151 658.094 138.383 659.346 138.456V137.52C659.346 135.467 660.717 133.73 662.592 133.172Z" fill="#0077CF"/>
<circle cx="1015" cy="133" r="19" fill="#E8FFF3"/>
<path d="M1008.61 134.151H1007.7C1007 134.151 1006.44 134.713 1006.44 135.407V140.313C1006.44 141.007 1007 141.569 1007.7 141.569H1008.61C1009.3 141.569 1009.87 141.007 1009.87 140.313V135.407C1009.87 134.713 1009.3 134.151 1008.61 134.151Z" fill="#00A64D"/>
<path d="M1013.17 132.44H1012.26C1011.57 132.44 1011.01 133.002 1011.01 133.695V140.313C1011.01 141.007 1011.57 141.568 1012.26 141.568H1013.17C1013.87 141.568 1014.43 141.007 1014.43 140.313V133.695C1014.43 133.002 1013.87 132.44 1013.17 132.44Z" fill="#00A64D"/>
<path d="M1017.74 130.158H1016.83C1016.13 130.158 1015.57 130.72 1015.57 131.413V140.314C1015.57 141.007 1016.13 141.569 1016.83 141.569H1017.74C1018.43 141.569 1018.99 141.007 1018.99 140.314V131.413C1018.99 130.72 1018.43 130.158 1017.74 130.158Z" fill="#00A64D"/>
<path d="M1022.3 127.875H1021.39C1020.7 127.875 1020.13 128.437 1020.13 129.131V140.313C1020.13 141.007 1020.7 141.569 1021.39 141.569H1022.3C1023 141.569 1023.56 141.007 1023.56 140.313V129.131C1023.56 128.437 1023 127.875 1022.3 127.875Z" fill="#00A64D"/>
<path d="M1020.67 125.057L1019.17 124.47C1019.1 124.443 1019.03 124.43 1018.95 124.432C1018.88 124.433 1018.8 124.449 1018.73 124.479C1018.66 124.509 1018.6 124.553 1018.55 124.607C1018.5 124.661 1018.46 124.725 1018.43 124.794C1018.4 124.864 1018.39 124.939 1018.39 125.014C1018.39 125.089 1018.41 125.163 1018.44 125.231C1018.47 125.3 1018.51 125.362 1018.57 125.414C1018.62 125.466 1018.68 125.506 1018.75 125.534L1018.97 125.619L1008.49 130.215C1008.43 130.245 1008.36 130.288 1008.31 130.342C1008.26 130.396 1008.22 130.46 1008.19 130.53C1008.14 130.671 1008.14 130.828 1008.2 130.966C1008.23 131.035 1008.27 131.097 1008.33 131.149C1008.38 131.201 1008.45 131.242 1008.52 131.269C1008.66 131.324 1008.81 131.321 1008.95 131.26L1019.43 126.664L1019.35 126.884C1019.32 126.954 1019.31 127.029 1019.31 127.104C1019.31 127.179 1019.33 127.252 1019.36 127.321C1019.42 127.46 1019.53 127.569 1019.67 127.624C1019.81 127.679 1019.97 127.675 1020.11 127.615C1020.18 127.585 1020.24 127.541 1020.29 127.487C1020.34 127.433 1020.38 127.369 1020.41 127.3L1021 125.796C1021.05 125.655 1021.05 125.498 1020.99 125.36C1020.93 125.221 1020.81 125.112 1020.67 125.057V125.057Z" fill="#00A64D"/>
<circle cx="351.051" cy="133" r="19" fill="#FFECFB"/>
<path d="M348.224 128.107H353.879L355.268 125.322C355.332 125.194 355.349 125.046 355.315 124.907C355.281 124.767 355.2 124.643 355.084 124.557C354.968 124.471 354.825 124.428 354.68 124.437C354.536 124.446 354.399 124.506 354.295 124.606C353.894 124.919 353.394 125.075 352.887 125.047C352.383 125.075 351.886 124.921 351.486 124.613C351.371 124.499 351.216 124.435 351.055 124.435C350.893 124.435 350.738 124.499 350.623 124.613C350.222 124.923 349.722 125.077 349.216 125.047C348.712 125.075 348.214 124.921 347.814 124.613C347.712 124.509 347.575 124.445 347.43 124.434C347.284 124.422 347.139 124.462 347.021 124.548C346.903 124.634 346.819 124.759 346.785 124.901C346.751 125.043 346.769 125.192 346.835 125.322L348.224 128.107Z" fill="#AB218E"/>
<path d="M354.258 129.331H347.845C346.536 130.915 344.32 134.061 344.32 137.285C344.32 140.082 346.45 141.569 347.992 141.569H354.111C355.653 141.569 357.783 140.082 357.783 137.285C357.783 134.061 355.567 130.915 354.258 129.331V129.331ZM351.663 137.897V138.509C351.663 138.672 351.599 138.827 351.484 138.942C351.369 139.057 351.214 139.121 351.051 139.121C350.889 139.121 350.734 139.057 350.619 138.942C350.504 138.827 350.44 138.672 350.44 138.509V137.897C350.118 137.897 349.803 137.811 349.524 137.65C349.246 137.489 349.015 137.258 348.855 136.98C348.804 136.91 348.769 136.831 348.751 136.747C348.733 136.664 348.733 136.577 348.751 136.493C348.768 136.41 348.803 136.33 348.854 136.261C348.904 136.192 348.968 136.134 349.042 136.091C349.116 136.048 349.198 136.021 349.283 136.011C349.368 136.002 349.455 136.011 349.536 136.037C349.618 136.063 349.693 136.106 349.757 136.163C349.821 136.22 349.872 136.29 349.907 136.368C349.961 136.461 350.039 136.538 350.132 136.592C350.226 136.646 350.332 136.674 350.44 136.674H351.663C351.826 136.674 351.981 136.609 352.096 136.494C352.211 136.38 352.275 136.224 352.275 136.062C352.275 135.899 352.211 135.744 352.096 135.629C351.981 135.514 351.826 135.45 351.663 135.45H350.44C349.953 135.45 349.486 135.256 349.141 134.912C348.797 134.568 348.604 134.101 348.604 133.614C348.604 133.127 348.797 132.66 349.141 132.316C349.486 131.972 349.953 131.778 350.44 131.778V131.166C350.44 131.004 350.504 130.848 350.619 130.734C350.734 130.619 350.889 130.554 351.051 130.554C351.214 130.554 351.369 130.619 351.484 130.734C351.599 130.848 351.663 131.004 351.663 131.166V131.778C351.985 131.779 352.3 131.864 352.578 132.025C352.857 132.186 353.088 132.418 353.248 132.696C353.299 132.765 353.334 132.844 353.352 132.928C353.37 133.012 353.37 133.098 353.352 133.182C353.334 133.266 353.299 133.345 353.249 133.414C353.199 133.484 353.135 133.542 353.061 133.585C352.987 133.628 352.905 133.655 352.82 133.664C352.734 133.674 352.648 133.665 352.567 133.639C352.485 133.613 352.41 133.57 352.346 133.513C352.282 133.456 352.231 133.386 352.196 133.308C352.142 133.215 352.064 133.137 351.971 133.083C351.877 133.03 351.771 133.002 351.663 133.002H350.44C350.277 133.002 350.122 133.067 350.007 133.181C349.892 133.296 349.828 133.452 349.828 133.614C349.828 133.776 349.892 133.932 350.007 134.047C350.122 134.161 350.277 134.226 350.44 134.226H351.663C352.15 134.226 352.617 134.419 352.961 134.764C353.306 135.108 353.499 135.575 353.499 136.062C353.499 136.549 353.306 137.015 352.961 137.36C352.617 137.704 352.15 137.897 351.663 137.897Z" fill="#AB218E"/>
<defs>
<clipPath id="clip0_51_4">
<rect width="160" height="38" fill="white" transform="translate(16 21)"/>
</clipPath>
</defs>
</svg>
